<?xml version="1.0" encoding="UTF-8"?>
<svg width="20px" height="20px" viewBox="0 0 20 20" version="1.1" xmlns="http://www.w3.org/2000/svg" xmlns:xlink="http://www.w3.org/1999/xlink">
    <!-- Generator: Sketch 52.1 (67048) - http://www.bohemiancoding.com/sketch -->
    <title>Group 9</title>
    <desc>Created with Sketch.</desc>
    <g id="Page-1" stroke="none" stroke-width="1" fill="none" fill-rule="evenodd">
        <g id="01-Menu-Expanded" transform="translate(-367.000000, -189.000000)" fill="#3673FF">
            <g id="Group-9" transform="translate(367.000000, 189.000000)">
                <path d="M19.2307692,18.7884615 C19.2307692,19.0323462 19.0323654,19.2307692 18.7884615,19.2307692 L1.21153846,19.2307692 C0.967653846,19.2307692 0.769230769,19.0323462 0.769230769,18.7884615 L0.769230769,1.21153846 C0.769230769,0.967653846 0.967653846,0.769230769 1.21153846,0.769230769 L18.7884615,0.769230769 C19.0323654,0.769230769 19.2307692,0.967653846 19.2307692,1.21153846 L19.2307692,18.7884615 Z M18.7884615,0 L1.21153846,0 C0.5435,0 0,0.5435 0,1.21153846 L0,18.7884615 C0,19.4565 0.5435,20 1.21153846,20 L18.7884615,20 C19.4565,20 20,19.4565 20,18.7884615 L20,1.21153846 C20,0.5435 19.4565,0 18.7884615,0 Z" id="Fill-1"></path>
                <path d="M9.96272115,10.8682769 C9.53497115,10.8682769 9.18672115,10.5218923 9.18327885,10.0948346 C9.19100962,10.06445 9.19554808,10.0328154 9.19554808,10.0000077 C9.19554808,9.98708462 9.194875,9.97435385 9.193625,9.96175769 C9.25445192,9.59266154 9.57608654,9.31016154 9.96272115,9.31016154 C10.3923173,9.31016154 10.7418365,9.65931538 10.7418365,10.0885077 C10.7418365,10.5184885 10.3923173,10.8682769 9.96272115,10.8682769 M16.7307596,9.61539231 L11.4367788,9.61539231 C11.2362788,8.99279615 10.6514135,8.54093077 9.96272115,8.54093077 C9.27379808,8.54093077 8.68875962,8.99279615 8.48820192,9.61539231 L3.49643269,9.61539231 C3.28400962,9.61539231 3.11181731,9.78758462 3.11181731,10.0000077 C3.11181731,10.2124308 3.28400962,10.3846231 3.49643269,10.3846231 L8.44260577,10.3846231 C8.58120192,11.0975462 9.20995192,11.6375077 9.96272115,11.6375077 C10.7152596,11.6375077 11.3437981,11.0975462 11.4823558,10.3846231 L16.7307596,10.3846231 C16.9431827,10.3846231 17.115375,10.2124308 17.115375,10.0000077 C17.115375,9.78758462 16.9431827,9.61539231 16.7307596,9.61539231" id="Fill-3"></path>
                <path d="M13.6695096,16.1940346 C13.239625,16.1940346 12.889875,15.8443038 12.889875,15.4144385 C12.889875,14.98465 13.239625,14.6349962 13.6695096,14.6349962 C14.0992788,14.6349962 14.4489135,14.98465 14.4489135,15.4144385 C14.4489135,15.8443038 14.0992788,16.1940346 13.6695096,16.1940346 M16.6558942,15.0298231 L15.1697788,15.0298231 C14.9983173,14.3613231 14.3907019,13.8657654 13.6695096,13.8657654 C12.9482019,13.8657654 12.3405288,14.3613231 12.1690481,15.0298231 L3.26924038,15.0298231 C3.05681731,15.0298231 2.884625,15.2020154 2.884625,15.4144385 C2.884625,15.6268615 3.05681731,15.7990538 3.26924038,15.7990538 L12.1690288,15.7990538 C12.3405096,16.4676308 12.9482019,16.9632654 13.6695096,16.9632654 C14.3907404,16.9632654 14.9983173,16.4676308 15.1697788,15.7990538 L16.6558942,15.7990538 C16.8683173,15.7990538 17.0405096,15.6268615 17.0405096,15.4144385 C17.0405096,15.2020154 16.8683173,15.0298231 16.6558942,15.0298231" id="Fill-5"></path>
                <path d="M6.25595385,3.80596538 C6.68558846,3.80596538 7.03512692,4.15569615 7.03512692,4.58556154 C7.03512692,5.01544615 6.68558846,5.36515769 6.25595385,5.36515769 C5.82608846,5.36515769 5.47635769,5.01544615 5.47635769,4.58556154 C5.47635769,4.15569615 5.82608846,3.80596538 6.25595385,3.80596538 M3.26922308,4.97017692 L4.75553077,4.97017692 C4.92699231,5.63875385 5.53466538,6.13438846 6.25595385,6.13438846 C6.97705,6.13438846 7.58455,5.63875385 7.75597308,4.97017692 L16.6558962,4.97017692 C16.8683192,4.97017692 17.0405115,4.79798462 17.0405115,4.58556154 C17.0405115,4.37313846 16.8683192,4.20094615 16.6558962,4.20094615 L7.75597308,4.20094615 C7.58455,3.53236923 6.97705,3.03673462 6.25595385,3.03673462 C5.53466538,3.03673462 4.92699231,3.53236923 4.75553077,4.20094615 L3.26922308,4.20094615 C3.05681923,4.20094615 2.88460769,4.37313846 2.88460769,4.58556154 C2.88460769,4.79798462 3.05681923,4.97017692 3.26922308,4.97017692" id="Fill-7"></path>
            </g>
        </g>
    </g>
</svg>