<?xml version="1.0" encoding="UTF-8"?>
<svg width="18px" height="12px" viewBox="0 0 18 12" version="1.1" xmlns="http://www.w3.org/2000/svg" xmlns:xlink="http://www.w3.org/1999/xlink">
    <!-- Generator: Sketch 52.1 (67048) - http://www.bohemiancoding.com/sketch -->
    <title>left</title>
    <desc>Created with Sketch.</desc>
    <g id="Page-1" stroke="none" stroke-width="1" fill="none" fill-rule="evenodd" opacity="0.5">
        <g id="05-Shipment-Order" transform="translate(-287.000000, -99.000000)" fill="#000000">
            <g id="left" transform="translate(296.000000, 105.000000) scale(1, -1) translate(-296.000000, -105.000000) translate(287.000000, 99.000000)">
                <path d="M17.6249533,5.62501016 L1.28025816,5.62501016 L6.26513073,0.640133945 C6.41162675,0.493637816 6.41162675,0.25633307 6.26513073,0.109872097 C6.11863471,-0.0366240324 5.88133014,-0.0366240324 5.73486927,0.109872097 L0.109872017,5.73487347 C-0.0366240056,5.8813696 -0.0366240056,6.11867435 0.109872017,6.26513532 L5.73486927,11.8901367 C5.8080997,11.9633672 5.90407622,12 6.00001758,12 C6.09595894,12 6.1919003,11.9633672 6.26516589,11.8901367 C6.41166191,11.7436406 6.41166191,11.5063358 6.26516589,11.3598748 L1.28025816,6.37503378 L17.6249885,6.37503378 C17.8322696,6.37503378 18,6.20730327 18,6.00002197 C18,5.79274067 17.8322345,5.62501016 17.6249533,5.62501016 Z" id="Path"></path>
            </g>
        </g>
    </g>
</svg>