<?xml version="1.0" encoding="utf-8"?>
<!-- Generator: Adobe Illustrator 16.0.0, SVG Export Plug-In . SVG Version: 6.00 Build 0)  -->
<!DOCTYPE svg PUBLIC "-//W3C//DTD SVG 1.1//EN" "http://www.w3.org/Graphics/SVG/1.1/DTD/svg11.dtd">
<svg version="1.1" id="Layer_1" xmlns="http://www.w3.org/2000/svg" xmlns:xlink="http://www.w3.org/1999/xlink" x="0px" y="0px"
	 width="22px" height="20px" viewBox="0 0 22 20" enable-background="new 0 0 22 20" xml:space="preserve">
<title>eraser</title>
<desc>Created with Sketch.</desc>
<g id="Page-1">
	<g id="_x30_1-Menu-Expanded" transform="translate(-334.000000, -232.000000)">
		<g id="eraser" transform="translate(334.000000, 232.000000)">
			<path id="Shape" fill="#3673FF" d="M21.865,6.548l-6.416-6.417c-0.172-0.172-0.477-0.172-0.648,0l-10.62,10.62
				c-0.433,0.434-0.671,1.008-0.671,1.62s0.238,1.188,0.671,1.62l2.75,2.75c0.433,0.434,1.009,0.672,1.621,0.672h2.146
				c0.612,0,1.188-0.238,1.62-0.672l9.547-9.546C22.044,7.018,22.044,6.727,21.865,6.548z M11.672,16.096
				c-0.26,0.26-0.605,0.402-0.973,0.402H8.552c-0.368,0-0.712-0.143-0.973-0.402l-2.75-2.75c-0.26-0.261-0.402-0.605-0.402-0.973
				S4.569,11.66,4.829,11.4L15.125,1.104l5.769,5.769L11.672,16.096z"/>
			<path id="Path" fill="#3673FF" d="M14.531,13.882L8.115,7.465c-0.179-0.179-0.469-0.179-0.648,0s-0.179,0.47,0,0.648l6.417,6.416
				c0.09,0.09,0.207,0.135,0.325,0.135c0.117,0,0.234-0.045,0.322-0.135C14.711,14.352,14.711,14.061,14.531,13.882z"/>
			<path id="Path_1_" fill="#3673FF" d="M5.042,16.497H0.458C0.206,16.497,0,16.702,0,16.955s0.206,0.459,0.458,0.459h4.583
				c0.253,0,0.458-0.206,0.458-0.459S5.294,16.497,5.042,16.497z"/>
			<path id="Path_2_" fill="#3673FF" d="M13.291,18.33h-8.25c-0.253,0-0.458,0.205-0.458,0.459c0,0.252,0.205,0.458,0.458,0.458
				h8.25c0.254,0,0.459-0.206,0.459-0.458C13.75,18.535,13.545,18.33,13.291,18.33z"/>
		</g>
	</g>
</g>
</svg>
