<?xml version="1.0" encoding="UTF-8"?>
<svg width="22px" height="20px" viewBox="0 0 22 20" version="1.1" xmlns="http://www.w3.org/2000/svg" xmlns:xlink="http://www.w3.org/1999/xlink">
    <!-- Generator: Sketch 52.1 (67048) - http://www.bohemiancoding.com/sketch -->
    <title>eraser</title>
    <desc>Created with Sketch.</desc>
    <g id="Page-1" stroke="none" stroke-width="1" fill="none" fill-rule="evenodd">
        <g id="01-Menu-Expanded" transform="translate(-334.000000, -232.000000)" fill="#4A4A4A">
            <g id="eraser" transform="translate(334.000000, 232.000000)">
                <path d="M21.86525,6.54830859 L15.4485977,0.13165625 C15.2771953,-0.0406914063 14.9728477,-0.0406914063 14.8005,0.13165625 L4.18090234,10.7512539 C3.74825,11.1848516 3.50990234,11.7596016 3.50990234,12.3719062 C3.50990234,12.9842539 3.74825,13.5599062 4.18090234,13.9925586 L6.93090234,16.7425586 C7.36355469,17.1752109 7.93925,17.4135586 8.55155469,17.4135586 L10.6984023,17.4135586 C11.31075,17.4135586 11.8864023,17.1752109 12.3190547,16.7425586 L21.86525,7.19640625 C22.044,7.01765625 22.044,6.72705859 21.86525,6.54830859 Z M11.6719023,16.0954062 C11.4115547,16.3548086 11.0669023,16.4978086 10.6993047,16.4978086 L8.55155469,16.4978086 C8.18395703,16.4978086 7.83930469,16.3548086 7.57895703,16.0954062 L4.82895703,13.3454062 C4.56955469,13.0850586 4.42655469,12.7404062 4.42655469,12.3728086 C4.42655469,12.0052109 4.56955469,11.6596562 4.82895703,11.4002109 L15.125,1.10330859 L20.8935977,6.87190625 L11.6719023,16.0954062 Z" id="Shape" fill-rule="nonzero"></path>
                <path d="M14.5319023,13.8816562 L8.11525,7.46500391 C7.9365,7.28625391 7.64590234,7.28625391 7.46715234,7.46500391 C7.28840234,7.64375391 7.28840234,7.93435156 7.46715234,8.11310156 L13.8838047,14.5297539 C13.9736523,14.6186562 14.090957,14.6636016 14.2083047,14.6636016 C14.3256523,14.6636016 14.442957,14.6186992 14.5319023,14.5297539 C14.7106523,14.3510039 14.7106523,14.0604062 14.5319023,13.8816562 Z" id="Path"></path>
                <path d="M5.04165234,16.4969062 L0.458347656,16.4969062 C0.205347656,16.4969062 0,16.7022539 0,16.9552539 C0,17.2082539 0.205347656,17.4136016 0.458347656,17.4136016 L5.04169531,17.4136016 C5.29469531,17.4136016 5.50004297,17.2082539 5.50004297,16.9552539 C5.5,16.7022539 5.29465234,16.4969062 5.04165234,16.4969062 Z" id="Path"></path>
                <path d="M13.2916523,18.3302539 L5.04165234,18.3302539 C4.78865234,18.3302539 4.58330469,18.5356016 4.58330469,18.7886016 C4.58330469,19.0416016 4.78865234,19.2469492 5.04165234,19.2469492 L13.2916523,19.2469492 C13.5446523,19.2469492 13.75,19.0416016 13.75,18.7886016 C13.75,18.5356016 13.5446523,18.3302539 13.2916523,18.3302539 Z" id="Path"></path>
            </g>
        </g>
    </g>
</svg>