<?xml version="1.0" encoding="utf-8"?>
<!-- Generator: Adobe Illustrator 23.0.1, SVG Export Plug-In . SVG Version: 6.00 Build 0)  -->
<svg version="1.1" id="Layer_1" xmlns="http://www.w3.org/2000/svg" xmlns:xlink="http://www.w3.org/1999/xlink" x="0px" y="0px"
	 viewBox="0 0 26 26" style="enable-background:new 0 0 26 26;" xml:space="preserve">
<style type="text/css">
	.st0{fill-rule:evenodd;clip-rule:evenodd;fill:#FFFFFF;}
	.st1{fill:none;stroke:#FFFFFF;}
</style>
<title>Group 16</title>
<g transform="translate(-843.000000, -115.000000)">
	<g id="Group-16" transform="translate(844.000000, 116.000000)">
		<g id="close" transform="translate(7.000000, 7.000000)">
			<path id="Path" class="st0" d="M5.6,5l4.3-4.3c0.2-0.2,0.2-0.4,0-0.6C9.7,0,9.5,0,9.3,0.1L5,4.4L0.7,0.1C0.5,0,0.3,0,0.1,0.1
				S0,0.5,0.1,0.7L4.4,5L0.1,9.3C0,9.5,0,9.7,0.1,9.9C0.2,10,0.3,10,0.4,10s0.2,0,0.3-0.1L5,5.6l4.3,4.3C9.4,10,9.5,10,9.6,10
				s0.2,0,0.3-0.1c0.2-0.2,0.2-0.4,0-0.6L5.6,5z"/>
		</g>
		<path id="Rectangle" class="st1" d="M12,0L12,0c6.6,0,12,5.4,12,12l0,0c0,6.6-5.4,12-12,12l0,0C5.4,24,0,18.6,0,12l0,0
			C0,5.4,5.4,0,12,0z"/>
	</g>
</g>
</svg>
