<?xml version="1.0" encoding="UTF-8"?>
<svg width="26px" height="26px" viewBox="0 0 26 26" version="1.1" xmlns="http://www.w3.org/2000/svg" xmlns:xlink="http://www.w3.org/1999/xlink">
    <title>Group 16</title>
    <g id="Page-1" stroke="none" stroke-width="1" fill="none" fill-rule="evenodd">
        <g id="04-Pop-up-Columns" transform="translate(-843.000000, -115.000000)">
            <g id="Group-16" transform="translate(844.000000, 116.000000)">
                <g id="close" opacity="0.49" transform="translate(7.000000, 7.000000)" fill="#000000">
                    <path d="M5.55244955,5.00002197 L9.88558139,0.666860026 C10.0381395,0.514301507 10.0381395,0.266957877 9.88558139,0.114418889 C9.73302324,-0.0381200986 9.48568022,-0.0381396298 9.3331416,0.114418889 L5,4.44758084 L0.666858398,0.114418889 C0.514300251,-0.0381396298 0.266957226,-0.0381396298 0.11441861,0.114418889 C-0.0381200055,0.266977409 -0.0381395367,0.514321038 0.11441861,0.666860026 L4.44755045,5 L0.11441861,9.33316439 C-0.0381395367,9.48572291 -0.0381395367,9.73306654 0.11441861,9.88560552 C0.190687918,9.96187502 0.290668094,10 0.39064827,10 C0.490628445,10 0.59058909,9.96187502 0.666877929,9.88560552 L5,5.55246311 L9.33312207,9.88560552 C9.40939138,9.96187502 9.50937155,10 9.60935173,10 C9.70933191,10 9.80929255,9.96187502 9.88558139,9.88560552 C10.0381395,9.73304701 10.0381395,9.48570338 9.88558139,9.33316439 L5.55244955,5.00002197 Z" id="Path"></path>
                </g>
                <rect id="Rectangle" stroke="#979797" x="0" y="0" width="24" height="24" rx="12"></rect>
            </g>
        </g>
    </g>
</svg>