<?xml version="1.0" encoding="UTF-8"?>
<svg width="12px" height="12px" viewBox="0 0 12 12" version="1.1" xmlns="http://www.w3.org/2000/svg" xmlns:xlink="http://www.w3.org/1999/xlink">
    <!-- Generator: Sketch 52.1 (67048) - http://www.bohemiancoding.com/sketch -->
    <title>close</title>
    <desc>Created with Sketch.</desc>
    <g id="Page-1" stroke="none" stroke-width="1" fill="none" fill-rule="evenodd">
        <g id="04-Pop-up-Columns" transform="translate(-853.000000, -122.000000)" fill="#000000">
            <g id="close" transform="translate(853.000000, 122.000000)">
                <path d="M6.66293946,6.00002637 L11.8626977,0.800232031 C12.0457674,0.617161808 12.0457674,0.320349453 11.8626977,0.137302667 C11.6796279,-0.0457441183 11.3828163,-0.0457675558 11.1997699,0.137302667 L5.99998828,5.337097 L0.800230077,0.137302667 C0.617160301,-0.0457675558 0.320348671,-0.0457675558 0.137302332,0.137302667 C-0.0457440066,0.32037289 -0.045767444,0.617185246 0.137302332,0.800232031 L5.33706054,6.00000293 L0.137302332,11.1997973 C-0.045767444,11.3828675 -0.045767444,11.6796798 0.137302332,11.8627266 C0.228825501,11.95425 0.348801712,12 0.468777924,12 C0.588754135,12 0.708706908,11.95425 0.800253515,11.8627266 L5.99998828,6.66295573 L11.1997465,11.8627266 C11.2912697,11.95425 11.4112459,12 11.5312221,12 C11.6511983,12 11.7711511,11.95425 11.8626977,11.8627266 C12.0457674,11.6796564 12.0457674,11.3828441 11.8626977,11.1997973 L6.66293946,6.00002637 Z" id="Path"></path>
            </g>
        </g>
    </g>
</svg>