<?xml version="1.0" encoding="utf-8"?>
<!-- Generator: Adobe Illustrator 16.0.0, SVG Export Plug-In . SVG Version: 6.00 Build 0)  -->
<!DOCTYPE svg PUBLIC "-//W3C//DTD SVG 1.1//EN" "http://www.w3.org/Graphics/SVG/1.1/DTD/svg11.dtd">
<svg version="1.1" id="Layer_1" xmlns="http://www.w3.org/2000/svg" xmlns:xlink="http://www.w3.org/1999/xlink" x="0px" y="0px"
	 width="16px" height="20px" viewBox="0 0 16 20" enable-background="new 0 0 16 20" xml:space="preserve">
<title>bin (1)</title>
<g id="Page-1">
	<g id="_x30_6-Edit" transform="translate(-1185.000000, -148.000000)">
		<g id="bin-_x28_1_x29_" transform="translate(1185.000000, 148.000000)">
			<path id="Path" fill="#3673FF" d="M10.666,6.857c-0.21,0-0.381,0.204-0.381,0.456v8.613c0,0.251,0.171,0.455,0.381,0.455
				c0.211,0,0.382-0.204,0.382-0.455V7.313C11.048,7.061,10.877,6.857,10.666,6.857z"/>
			<path id="Path_1_" fill="#3673FF" d="M5.333,6.857c-0.21,0-0.381,0.204-0.381,0.456v8.613c0,0.251,0.171,0.455,0.381,0.455
				s0.381-0.204,0.381-0.455V7.313C5.714,7.061,5.544,6.857,5.333,6.857z"/>
			<path id="Shape" fill="#3673FF" d="M1.311,5.784v11.21c0,0.662,0.246,1.285,0.676,1.731c0.429,0.448,1.025,0.702,1.649,0.703
				h8.729c0.624-0.001,1.221-0.255,1.649-0.703c0.43-0.446,0.676-1.069,0.676-1.731V5.784c0.855-0.224,1.41-1.039,1.295-1.905
				c-0.113-0.866-0.861-1.513-1.747-1.513h-2.362V1.797c0.003-0.479-0.188-0.938-0.531-1.275C11,0.184,10.533-0.004,10.049,0H5.952
				C5.467-0.004,5,0.184,4.657,0.522C4.313,0.86,4.122,1.319,4.125,1.797v0.569H1.763c-0.885,0-1.633,0.647-1.748,1.513
				C-0.1,4.745,0.455,5.56,1.311,5.784z M12.364,18.519H3.636c-0.789,0-1.403-0.669-1.403-1.524V5.824h11.535v11.17
				C13.768,17.85,13.153,18.519,12.364,18.519z M5.047,1.797C5.044,1.561,5.139,1.333,5.309,1.165
				c0.17-0.167,0.402-0.259,0.643-0.255h4.097c0.24-0.004,0.472,0.088,0.643,0.255c0.17,0.167,0.264,0.396,0.262,0.632v0.569H5.047
				V1.797z M1.763,3.276h12.475c0.459,0,0.831,0.367,0.831,0.819c0,0.452-0.372,0.819-0.831,0.819H1.763
				c-0.459,0-0.831-0.367-0.831-0.819C0.932,3.643,1.304,3.276,1.763,3.276z"/>
			<path id="Path_2_" fill="#3673FF" d="M8,6.857c-0.21,0-0.381,0.204-0.381,0.456v8.613c0,0.251,0.17,0.455,0.381,0.455
				s0.381-0.204,0.381-0.455V7.313C8.381,7.061,8.21,6.857,8,6.857z"/>
		</g>
	</g>
</g>
</svg>
