<?xml version="1.0" encoding="UTF-8"?>
<svg width="16px" height="20px" viewBox="0 0 16 20" version="1.1" xmlns="http://www.w3.org/2000/svg" xmlns:xlink="http://www.w3.org/1999/xlink">
    <!-- Generator: Sketch 52.1 (67048) - http://www.bohemiancoding.com/sketch -->
    <title>bin (1)</title>
    <desc>Created with Sketch.</desc>
    <g id="Page-1" stroke="none" stroke-width="1" fill="none" fill-rule="evenodd">
        <g id="01-Menu-Expanded" transform="translate(-1183.000000, -109.000000)" fill="#DFDFDF">
            <g id="Group-13" transform="translate(1170.000000, 102.000000)">
                <g id="bin-(1)" transform="translate(13.000000, 7.000000)">
                    <path d="M10.6666667,6.85714286 C10.45625,6.85714286 10.2857143,7.06113297 10.2857143,7.31282752 L10.2857143,15.9252677 C10.2857143,16.1767843 10.45625,16.3809524 10.6666667,16.3809524 C10.8770833,16.3809524 11.047619,16.1767843 11.047619,15.9252677 L11.047619,7.31282752 C11.047619,7.06113297 10.8770833,6.85714286 10.6666667,6.85714286 Z" id="Path"></path>
                    <path d="M5.33333333,6.85714286 C5.12291665,6.85714286 4.95238095,7.06113297 4.95238095,7.31282752 L4.95238095,15.9252677 C4.95238095,16.1767843 5.12291665,16.3809524 5.33333333,16.3809524 C5.54374998,16.3809524 5.71428571,16.1767843 5.71428571,15.9252677 L5.71428571,7.31282752 C5.71428571,7.06113297 5.54374998,6.85714286 5.33333333,6.85714286 Z" id="Path"></path>
                    <path d="M1.31032823,5.78407303 L1.31032823,16.99432 C1.31032823,17.6569141 1.55668545,18.2791625 1.98704472,18.7256315 C2.41542159,19.1733447 3.01158097,19.427505 3.63549377,19.4285714 L12.3645063,19.4285714 C12.9885993,19.427505 13.5847586,19.1733447 14.0129553,18.7256315 C14.4433146,18.2791625 14.6896719,17.6569141 14.6896719,16.99432 L14.6896719,5.78407303 C15.5451641,5.56012758 16.0995129,4.74503723 15.9850749,3.87929255 C15.8704566,3.01372565 15.1227344,2.36623892 14.2375062,2.3660612 L11.8753961,2.3660612 L11.8753961,1.79731086 C11.8780994,1.31902736 11.686348,0.859761459 11.3430338,0.521888221 C10.9997195,0.184192706 10.5333168,-0.00385037529 10.0483516,5.97833041e-05 L5.95164846,5.97833041e-05 C5.46668328,-0.00385037529 5.00028052,0.184192706 4.65696628,0.521888221 C4.31365205,0.859761459 4.12190068,1.31902736 4.12460395,1.79731086 L4.12460395,2.3660612 L1.7624938,2.3660612 C0.877265677,2.36623892 0.12954348,3.01372565 0.0149251346,3.87929255 C-0.0995129127,4.74503723 0.454835969,5.56012758 1.31032823,5.78407303 Z M12.3645063,18.5185709 L3.63549377,18.5185709 C2.84668199,18.5185709 2.23304158,17.8502892 2.23304158,16.99432 L2.23304158,5.82406327 L13.7669585,5.82406327 L13.7669585,16.99432 C13.7669585,17.8502892 13.153318,18.5185709 12.3645063,18.5185709 Z M5.04731731,1.79731086 C5.04425358,1.56039081 5.13868752,1.33235746 5.30917325,1.16510932 C5.47947873,0.997861185 5.71123836,0.905972424 5.95164846,0.910060329 L10.0483516,0.910060329 C10.2887616,0.905972424 10.5205213,0.997861185 10.6908268,1.16510932 C10.8613125,1.33217973 10.9557465,1.56039081 10.9526828,1.79731086 L10.9526828,2.3660612 L5.04731731,2.3660612 L5.04731731,1.79731086 Z M1.7624938,3.27606175 L14.2375062,3.27606175 C14.6961596,3.27606175 15.0679483,3.64272799 15.0679483,4.09506224 C15.0679483,4.54739648 14.6961596,4.91406273 14.2375062,4.91406273 L1.7624938,4.91406273 C1.30384035,4.91406273 0.932051782,4.54739648 0.932051782,4.09506224 C0.932051782,3.64272799 1.30384035,3.27606175 1.7624938,3.27606175 Z" id="Shape" fill-rule="nonzero"></path>
                    <path d="M8,6.85714286 C7.78958331,6.85714286 7.61904762,7.06113297 7.61904762,7.31282752 L7.61904762,15.9252677 C7.61904762,16.1767843 7.78958331,16.3809524 8,16.3809524 C8.21041665,16.3809524 8.38095238,16.1767843 8.38095238,15.9252677 L8.38095238,7.31282752 C8.38095238,7.06113297 8.21041665,6.85714286 8,6.85714286 Z" id="Path"></path>
                </g>
            </g>
        </g>
    </g>
</svg>