<?xml version="1.0" encoding="UTF-8"?>
<svg width="16px" height="16px" viewBox="0 0 16 16" version="1.1" xmlns="http://www.w3.org/2000/svg" xmlns:xlink="http://www.w3.org/1999/xlink">
    <!-- Generator: Sketch 52.1 (67048) - http://www.bohemiancoding.com/sketch -->
    <title>edit (3)</title>
    <desc>Created with Sketch.</desc>
    <g id="Page-1" stroke="none" stroke-width="1" fill="none" fill-rule="evenodd" opacity="0.5">
        <g id="01-Menu-Expanded" transform="translate(-373.000000, -274.000000)" fill="#4A4A4A">
            <g id="edit-(3)" transform="translate(373.000000, 274.000000)">
                <path d="M14.7498445,9.98896143 C14.5300062,9.98896143 14.3518346,10.1671331 14.3518346,10.3869714 L14.3518346,13.9208644 C14.3510572,14.5800684 13.8170087,15.1142724 13.1578047,15.1148943 L1.99004975,15.1148943 C1.33084577,15.1142724 0.796797254,14.5800684 0.7960199,13.9208644 L0.7960199,3.54912935 C0.796797254,2.89008084 1.33084577,2.35587686 1.99004975,2.3550995 L5.52394277,2.3550995 C5.74378109,2.3550995 5.92195272,2.17692784 5.92195272,1.95708955 C5.92195272,1.73740673 5.74378109,1.5590796 5.52394277,1.5590796 L1.99004975,1.5590796 C0.891480119,1.56032338 0.00124378109,2.45055968 0,3.54912935 L0,13.9210199 C0.00124378109,15.0195896 0.891480119,15.9098259 1.99004975,15.9110697 L13.1578047,15.9110697 C14.2563744,15.9098259 15.1466107,15.0195896 15.1478545,13.9210199 L15.1478545,10.3869714 C15.1478545,10.1671331 14.9696828,9.98896143 14.7498445,9.98896143 Z" id="Path"></path>
                <path d="M14.9902052,0.534981333 C14.2907339,-0.16449003 13.1567164,-0.16449003 12.457245,0.534981333 L5.35649875,7.6357276 C5.30783582,7.68439053 5.27269899,7.74471395 5.25435323,7.81094527 L4.3205846,11.1820585 C4.28218285,11.3202736 4.32120645,11.4682836 4.42257465,11.5698072 C4.52409827,11.6711754 4.67210822,11.710199 4.81032338,11.6719527 L8.18143658,10.7380286 C8.2476679,10.7196828 8.30799128,10.684546 8.35665425,10.6358831 L15.457245,3.53498133 C16.1556281,2.83504354 16.1556281,1.70195897 15.457245,1.00202113 L14.9902052,0.534981333 Z M6.22372513,7.89443407 L12.0351368,2.08286691 L13.9093594,3.95708955 L8.09779228,9.76865672 L6.22372513,7.89443407 Z M5.84934702,8.64567785 L7.346704,10.1431903 L5.27549751,10.7170398 L5.84934702,8.64567785 Z M14.8944341,2.97217039 L14.4723259,3.39427861 L12.5979478,1.5199005 L13.0202114,1.09779228 C13.4087376,0.709266149 14.0387127,0.709266149 14.4272388,1.09779228 L14.8944341,1.56483208 C15.2823383,1.95382464 15.2823383,2.58333333 14.8944341,2.97217039 Z" id="Shape" fill-rule="nonzero"></path>
            </g>
        </g>
    </g>
</svg>