<?xml version="1.0" encoding="utf-8"?>
<!-- Generator: Adobe Illustrator 16.0.0, SVG Export Plug-In . SVG Version: 6.00 Build 0)  -->
<!DOCTYPE svg PUBLIC "-//W3C//DTD SVG 1.1//EN" "http://www.w3.org/Graphics/SVG/1.1/DTD/svg11.dtd">
<svg version="1.1" id="Layer_1" xmlns="http://www.w3.org/2000/svg" xmlns:xlink="http://www.w3.org/1999/xlink" x="0px" y="0px"
	 width="16px" height="16px" viewBox="0 0 16 16" enable-background="new 0 0 16 16" xml:space="preserve">
<title>edit (3)</title>
<desc>Created with Sketch.</desc>
<g id="Page-1" opacity="0.5">
	<g id="_x30_1-Menu-Expanded" transform="translate(-373.000000, -274.000000)">
		<g id="edit-_x28_3_x29_" transform="translate(373.000000, 274.000000)">
			<path id="Path" fill="#3673FF" d="M14.75,9.988c-0.221,0-0.398,0.179-0.398,0.398v3.534c0,0.659-0.535,1.193-1.193,1.194H1.99
				c-0.659-0.001-1.193-0.535-1.194-1.194V3.549C0.797,2.89,1.331,2.356,1.99,2.355h3.534c0.22,0,0.398-0.178,0.398-0.398
				S5.744,1.559,5.524,1.559H1.99C0.892,1.561,0.001,2.451,0,3.549v10.372c0.001,1.099,0.892,1.989,1.99,1.99h11.168
				c1.098-0.001,1.988-0.892,1.99-1.99v-3.534C15.148,10.167,14.97,9.988,14.75,9.988z"/>
			<path id="Shape" fill="#3673FF" d="M14.99,0.535c-0.699-0.7-1.834-0.7-2.533,0L5.356,7.636C5.308,7.685,5.272,7.745,5.254,7.811
				l-0.934,3.371c-0.039,0.139,0,0.287,0.102,0.389c0.102,0.102,0.25,0.14,0.388,0.102l3.371-0.934
				c0.066-0.019,0.126-0.054,0.175-0.103l7.101-7.101c0.699-0.7,0.699-1.833,0-2.533L14.99,0.535z M6.224,7.895l5.812-5.812
				l1.874,1.874L8.098,9.769L6.224,7.895z M5.849,8.646l1.498,1.497l-2.071,0.574L5.849,8.646z M14.895,2.972l-0.422,0.422
				L12.598,1.52l0.422-0.422c0.389-0.388,1.02-0.388,1.408,0l0.467,0.467C15.282,1.954,15.282,2.583,14.895,2.972z"/>
		</g>
	</g>
</g>
</svg>
