<?xml version="1.0" encoding="UTF-8"?>
<svg width="28px" height="28px" viewBox="0 0 28 28" version="1.1" xmlns="http://www.w3.org/2000/svg" xmlns:xlink="http://www.w3.org/1999/xlink">
    <!-- Generator: Sketch 52.1 (67048) - http://www.bohemiancoding.com/sketch -->
    <title>Group 16</title>
    <desc>Created with Sketch.</desc>
    <g id="Page-1" stroke="none" stroke-width="1" fill="none" fill-rule="evenodd">
        <g id="002-Carrier-Events" transform="translate(-1232.000000, -134.000000)" stroke="#EFA00B">
            <g id="Group-16" transform="translate(1232.000000, 134.000000)">
                <g id="Group-4" stroke-width="2">
                    <rect id="Rectangle-Copy-5" x="1" y="1" width="26" height="26" rx="13"></rect>
                </g>
                <polyline id="Stroke-4" stroke-width="0.8" stroke-linejoin="round" points="8 16.6571429 8 17.4 14.5 20 21 17.4 21 9.6 14.5 7 8 9.6 8 12.2"></polyline>
                <path d="M5,16.3289992 L9.34042553,16.3289992" id="Stroke-11" stroke-width="0.8" stroke-linejoin="round"></path>
                <path d="M13.9956659,13 L13.9956659,20.2340426" id="Stroke-13" stroke-width="0.8" stroke-linejoin="round"></path>
                <polyline id="Stroke-1" stroke-width="0.8" stroke-linejoin="round" points="8 10 14.5 13 21 10"></polyline>
                <path d="M11,11 L17.5,8.5" id="Stroke-3" stroke-width="0.8" stroke-linecap="round" stroke-linejoin="round"></path>
                <path d="M8,15 L8,16" id="Stroke-6" stroke-width="0.8" stroke-linejoin="round"></path>
                <path d="M8,13 L8,14" id="Stroke-7" stroke-width="0.8" stroke-linejoin="round"></path>
                <path d="M4,12 L9,12" id="Stroke-8" stroke-width="0.8" stroke-linejoin="round"></path>
                <path d="M6,14 L10,14" id="Stroke-10" stroke-width="0.8" stroke-linejoin="round"></path>
                <path d="M20,17 L19,17" id="Stroke-16" stroke-width="0.8" stroke-linejoin="round"></path>
                <path d="M19,17 L18,17" id="Stroke-17" stroke-width="0.8" stroke-linejoin="round"></path>
            </g>
        </g>
    </g>
</svg>