<svg xmlns="http://www.w3.org/2000/svg" width="28" height="28" viewBox="0 0 28 28"><defs><clipPath id="pmtza"><path fill="#fff" d="M0 14C0 6.268 6.268 0 14 0s14 6.268 14 14-6.268 14-14 14S0 21.732 0 14z"/></clipPath></defs><g><g><g><g><path fill="none" stroke="#cdcdcd" stroke-miterlimit="20" stroke-width="4" d="M0 14C0 6.268 6.268 0 14 0h0c7.732 0 14 6.268 14 14v0c0 7.732-6.268 14-14 14h0C6.268 28 0 21.732 0 14z" clip-path="url(&quot;#pmtza&quot;)"/></g></g></g><g><g><path fill="none" stroke="#cdcdcd" stroke-linejoin="round" stroke-miterlimit="20" stroke-width=".8" d="M8 11v0l6.5 3v0l6.5-3v0"/></g><g><path fill="none" stroke="#cdcdcd" stroke-linecap="round" stroke-linejoin="round" stroke-miterlimit="20" stroke-width=".8" d="M11 12l7-3"/></g><g><path fill="none" stroke="#cdcdcd" stroke-linejoin="round" stroke-miterlimit="20" stroke-width=".8" d="M8 17.657v.743l6.5 2.6v0l6.5-2.6v0-7.8 0L14.5 8v0L8 10.6v2.6"/></g><g><path fill="none" stroke="#cdcdcd" stroke-linejoin="round" stroke-miterlimit="20" stroke-width=".8" d="M8 16v1"/></g><g><path fill="none" stroke="#cdcdcd" stroke-linejoin="round" stroke-miterlimit="20" stroke-width=".8" d="M8 14v1"/></g><g><path fill="none" stroke="#cdcdcd" stroke-linejoin="round" stroke-miterlimit="20" stroke-width=".8" d="M4 13.003h5"/></g><g><path fill="none" stroke="#cdcdcd" stroke-linejoin="round" stroke-miterlimit="20" stroke-width=".8" d="M6 15.003h4"/></g><g><g><path fill="none" stroke="#cdcdcd" stroke-linejoin="round" stroke-miterlimit="20" stroke-width=".8" d="M5 17.33h4.34"/></g><g><path fill="none" stroke="#cdcdcd" stroke-linejoin="round" stroke-miterlimit="20" stroke-width=".8" d="M13.99 14v7.234"/></g></g><g><path fill="none" stroke="#cdcdcd" stroke-linejoin="round" stroke-miterlimit="20" stroke-width=".8" d="M20 18.003h-1"/></g><g><path fill="none" stroke="#cdcdcd" stroke-linejoin="round" stroke-miterlimit="20" stroke-width=".8" d="M19 18.003h-1"/></g></g></g></svg>