<?xml version="1.0" encoding="UTF-8"?>
<svg width="28px" height="28px" viewBox="0 0 28 28" version="1.1" xmlns="http://www.w3.org/2000/svg" xmlns:xlink="http://www.w3.org/1999/xlink">
    <!-- Generator: Sketch 52.1 (67048) - http://www.bohemiancoding.com/sketch -->
    <title>Group 17</title>
    <desc>Created with Sketch.</desc>
    <defs>
        <polygon id="path-1" points="0 1.54809743e-05 21.984461 1.54809743e-05 21.984461 16.7937699 0 16.7937699"></polygon>
    </defs>
    <g id="Page-1" stroke="none" stroke-width="1" fill="none" fill-rule="evenodd">
        <g id="002-Carrier-Events" transform="translate(-1232.000000, -77.000000)">
            <g id="Group-17" transform="translate(1232.000000, 77.000000)">
                <rect id="Rectangle" stroke="#009845" stroke-width="2" x="1" y="1" width="26" height="26" rx="13"></rect>
                <g id="Group-3" transform="translate(4.000000, 6.000000)">
                    <mask id="mask-2" fill="white">
                        <use xlink:href="#path-1"></use>
                    </mask>
                    <g id="Clip-2"></g>
                    <path d="M7.68926028,10.9435305 C7.6595227,10.9154809 7.63812553,10.8961688 7.61782057,10.8758638 C6.76406879,10.0217149 5.90982057,9.16811206 5.05711135,8.31297021 C4.66377092,7.91838865 4.26576383,7.85121844 3.84690567,8.12873617 C3.41295532,8.41623262 3.19248014,9.04037447 3.59535248,9.51796312 C3.76285603,9.71649504 3.95220355,9.89685674 4.13435248,10.0828284 C4.97350851,10.9396582 5.81048014,11.798722 6.6557922,12.6494454 C6.85263617,12.8475801 7.06586312,13.0353887 7.29507589,13.193956 C7.58783475,13.3964596 7.92120355,13.3451759 8.17633121,13.0988355 C8.23580638,13.0413461 8.29552979,12.984105 8.3540617,12.9256227 C10.8722248,10.4075589 13.3903383,7.88939574 15.9083525,5.37108369 C16.0574872,5.22189929 16.2079624,5.07395603 16.3526291,4.92055177 C16.4871681,4.77787092 16.5644163,4.60510496 16.5778702,4.40895603 C16.6037851,4.03130355 16.3492532,3.63478582 15.9821752,3.47284255 C15.5888844,3.29933191 15.2126716,3.3797078 14.896778,3.69867943 C14.2012957,4.40101277 13.5040262,5.10160851 12.8074021,5.80284965 C11.3471823,7.27289929 9.88711135,8.74309787 8.42634539,10.2125518 C8.18487021,10.455417 7.94006879,10.6950057 7.68926028,10.9435305 M7.6868773,10.4150057 C7.97665745,10.1231901 8.24379929,9.8526227 8.51252979,9.58374326 C10.4861326,7.60899858 12.460083,5.63460142 14.4339837,3.66015461 C14.5275652,3.56657305 14.6209482,3.47274326 14.7161681,3.38089929 C15.3456716,2.77378582 16.1663099,2.94560851 16.646778,3.52238865 C17.1231255,4.09420426 17.1043099,4.78084965 16.5342319,5.34293475 C15.7419908,6.12410496 14.9536716,6.90929645 14.164161,7.69324681 C13.0313028,8.81826099 11.898544,9.94337447 10.7663312,11.0690837 C10.0184234,11.812722 9.28213262,12.5684738 8.5205227,13.2978142 C7.98355816,13.8120411 7.36969291,13.8261901 6.77285603,13.2476723 C6.00399787,12.5022468 5.25430284,11.7369631 4.49934539,10.977339 C4.13782766,10.6135872 3.78311135,10.2431333 3.42541631,9.87560851 C3.1784305,9.62182128 3.01723191,9.33065106 3.00104752,8.9662539 C2.97627447,8.40943121 3.39299787,7.8296227 3.95741631,7.6362539 C4.47357943,7.45936738 4.92282057,7.5964383 5.29684894,7.97096312 C6.02450142,8.6997078 6.7419766,9.43867943 7.46307589,10.174027 C7.5350617,10.2474028 7.60312553,10.3246014 7.6868773,10.4150057" id="Fill-1" stroke="#009845" fill="#000000" mask="url(#mask-2)"></path>
                </g>
            </g>
        </g>
    </g>
</svg>