<?xml version="1.0" encoding="UTF-8"?>
<svg width="28px" height="28px" viewBox="0 0 28 28" version="1.1" xmlns="http://www.w3.org/2000/svg" xmlns:xlink="http://www.w3.org/1999/xlink">
    <!-- Generator: Sketch 52.1 (67048) - http://www.bohemiancoding.com/sketch -->
    <title>Group 21</title>
    <desc>Created with Sketch.</desc>
    <g id="Page-1" stroke="none" stroke-width="1" fill="none" fill-rule="evenodd">
        <g id="002-Carrier-Events" transform="translate(-1231.000000, -253.000000)">
            <g id="Group-21" transform="translate(1231.000000, 253.000000)">
                <rect id="Rectangle" stroke="#BA3B46" stroke-width="2" x="1" y="1" width="26" height="26" rx="13"></rect>
                <g id="danger" transform="translate(12.000000, 6.000000)">
                    <path d="M1.74165164,11.1740656 C2.27915984,11.1740656 2.72658607,10.7622418 2.77185656,10.2265984 L3.47068033,1.88033197 C3.51136066,1.39627049 3.34723361,0.917745902 3.01866393,0.560344262 C2.6904959,0.203401639 2.22706148,0 1.74165164,0 C1.2562418,0 0.792807377,0.203401639 0.464610656,0.560344262 C0.135983607,0.917745902 -0.028057377,1.39627049 0.0126229508,1.88033197 L0.711446721,10.2265984 C0.756717213,10.7622418 1.20414344,11.1740656 1.74165164,11.1740656 Z" id="Path" stroke="#C82C42"></path>
                    <path d="M1.74165164,12.7883443 C1.11956967,12.7883443 0.615454918,13.2924303 0.615454918,13.914541 C0.615454918,14.5365943 1.11956967,15.0406803 1.74165164,15.0406803 C2.36373361,15.0406803 2.86784836,14.5365943 2.86784836,13.914541 C2.86784836,13.2924303 2.36373361,12.7883443 1.74165164,12.7883443 Z" id="Path" stroke="#C92C42"></path>
                </g>
            </g>
        </g>
    </g>
</svg>