<?xml version="1.0" encoding="utf-8"?>
<!-- Generator: Adobe Illustrator 16.0.0, SVG Export Plug-In . SVG Version: 6.00 Build 0)  -->
<!DOCTYPE svg PUBLIC "-//W3C//DTD SVG 1.1//EN" "http://www.w3.org/Graphics/SVG/1.1/DTD/svg11.dtd">
<svg version="1.1" id="Layer_1" xmlns="http://www.w3.org/2000/svg" xmlns:xlink="http://www.w3.org/1999/xlink" x="0px" y="0px"
	 width="15px" height="19px" viewBox="0 0 15 19" enable-background="new 0 0 15 19" xml:space="preserve">
<title>Group 11</title>
<desc>Created with Sketch.</desc>
<g id="Page-1">
	<g id="_x30_5-Shipment-Order" transform="translate(-827.000000, -509.000000)">
		<g id="Group-11" transform="translate(827.000000, 509.000000)">
			<path id="Fill-1" fill="#9B9B9B" d="M14.23,6.175H0.769C0.344,6.175,0,5.832,0,5.408V5.16c0-0.423,0.344-0.767,0.769-0.767H14.23
				c0.426,0,0.77,0.343,0.77,0.767v0.248C15,5.832,14.656,6.175,14.23,6.175"/>
			<path id="Fill-3" fill="#9B9B9B" d="M14.23,10.391H0.769C0.344,10.391,0,10.047,0,9.624V9.376c0-0.423,0.344-0.767,0.769-0.767
				H14.23c0.426,0,0.77,0.343,0.77,0.767v0.248C15,10.047,14.656,10.391,14.23,10.391"/>
			<path id="Fill-5" fill="#9B9B9B" d="M14.23,14.606H0.769C0.344,14.606,0,14.264,0,13.84v-0.248c0-0.424,0.344-0.767,0.769-0.767
				H14.23c0.426,0,0.77,0.343,0.77,0.767v0.248C15,14.264,14.656,14.606,14.23,14.606"/>
			<path id="Fill-7" fill="#9B9B9B" d="M7.201,0.113c0.17-0.15,0.428-0.15,0.598,0L9.058,1.23l0.694,0.616
				c0.303,0.27,0.109,0.766-0.299,0.766H7.5H5.547c-0.409,0-0.602-0.497-0.298-0.766L5.942,1.23L7.201,0.113z"/>
			<path id="Fill-9" fill="#9B9B9B" d="M7.799,18.887c-0.17,0.15-0.428,0.15-0.598,0L5.942,17.77l-0.694-0.615
				c-0.304-0.27-0.11-0.767,0.298-0.767H7.5h1.953c0.408,0,0.602,0.497,0.299,0.767L9.058,17.77L7.799,18.887z"/>
		</g>
	</g>
	<g id="Page">
	</g>
</g>
</svg>
