<?xml version="1.0" encoding="UTF-8"?>
<svg width="21px" height="22px" viewBox="0 0 21 22" version="1.1" xmlns="http://www.w3.org/2000/svg" xmlns:xlink="http://www.w3.org/1999/xlink">
    <!-- Generator: Sketch 52.1 (67048) - http://www.bohemiancoding.com/sketch -->
    <title>Group 5</title>
    <desc>Created with Sketch.</desc>
    <g id="Page-1" stroke="none" stroke-width="1" fill="none" fill-rule="evenodd" opacity="0.5">
        <g id="03-Shipment-Order-List" transform="translate(-799.000000, -109.000000)" fill="#4A4A4A">
            <g id="Group-5" transform="translate(809.500000, 120.000000) scale(-1, 1) translate(-809.500000, -120.000000) translate(799.000000, 109.000000)">
                <g id="Group-2">
                    <path d="M2.68085106,0 L13.4042553,0 C14.8827447,0 16.0851064,1.2023617 16.0851064,2.68085106 L16.0851064,4.0212766 L14.2978723,4.0212766 L14.2978723,2.68085106 C14.2978723,2.18802128 13.8970851,1.78723404 13.4042553,1.78723404 L2.68085106,1.78723404 C2.18802128,1.78723404 1.78723404,2.18802128 1.78723404,2.68085106 L1.78723404,18.7659574 C1.78723404,19.2587872 2.18802128,19.6595745 2.68085106,19.6595745 L13.4042553,19.6595745 C13.8970851,19.6595745 14.2978723,19.2587872 14.2978723,18.7659574 L14.2978723,17.4255319 L16.0851064,17.4255319 L16.0851064,18.7659574 C16.0851064,20.2444468 14.8827447,21.4468085 13.4042553,21.4468085 L2.68085106,21.4468085 C1.2023617,21.4468085 0,20.2444468 0,18.7659574 L0,2.68085106 C0,1.2023617 1.2023617,0 2.68085106,0" id="Fill-1"></path>
                    <path d="M20.6321872,10.0003787 L15.7172936,6.42591064 C15.445634,6.22842128 15.0855064,6.19982553 14.7861447,6.35263404 C14.4863362,6.50544255 14.297783,6.81284681 14.297783,7.14884681 L14.297783,9.38288936 L8.48927234,9.38288936 C7.99599574,9.38288936 7.59565532,9.78322979 7.59565532,10.2765064 L7.59565532,11.1701234 C7.59565532,11.6638468 7.99599574,12.0637404 8.48927234,12.0637404 L14.297783,12.0637404 L14.297783,14.297783 C14.297783,14.633783 14.4863362,14.941634 14.7861447,15.0939957 C14.9139319,15.1592298 15.0528894,15.1914 15.1914,15.1914 C15.3768255,15.1914 15.5613574,15.1333149 15.7172936,15.0207191 L20.6321872,11.4462511 C20.8631872,11.2778043 20.9999106,11.0092723 20.9999106,10.7233149 C20.9999106,10.4378043 20.8631872,10.1688255 20.6321872,10.0003787" id="Fill-3" transform="translate(14.297783, 10.723269) scale(-1, 1) translate(-14.297783, -10.723269) "></path>
                </g>
            </g>
        </g>
    </g>
</svg>