<?xml version="1.0" encoding="utf-8"?>
<!-- Generator: Adobe Illustrator 16.0.0, SVG Export Plug-In . SVG Version: 6.00 Build 0)  -->
<!DOCTYPE svg PUBLIC "-//W3C//DTD SVG 1.1//EN" "http://www.w3.org/Graphics/SVG/1.1/DTD/svg11.dtd">
<svg version="1.1" id="Layer_1" xmlns="http://www.w3.org/2000/svg" xmlns:xlink="http://www.w3.org/1999/xlink" x="0px" y="0px"
	 width="4px" height="8px" viewBox="0 0 4 8" enable-background="new 0 0 4 8" xml:space="preserve">
<title></title>
<g id="Layer_11">
	<path fill="#CED0DA" d="M3.176,2.886l-1.125-0.5c-0.033-0.015-0.07-0.015-0.103,0l-1.125,0.5C0.779,2.906,0.75,2.951,0.75,3v1.07
		c0.002,0.308,0.134,0.6,0.364,0.805l0.804,0.714c0.047,0.042,0.118,0.042,0.165,0l0.804-0.714C3.116,4.67,3.248,4.378,3.25,4.07V3
		C3.25,2.951,3.221,2.906,3.176,2.886z M3,4.07c0,0.239-0.102,0.466-0.279,0.625L2,5.332l-0.72-0.64C1.102,4.533,1,4.306,1,4.067
		V3.081l1-0.445l1,0.445V4.07z"/>
	<path fill="#CED0DA" d="M1.625,3.75c0,0.159,0.101,0.3,0.25,0.353v0.272C1.875,4.444,1.931,4.5,2,4.5s0.125-0.056,0.125-0.125
		V4.103C2.32,4.034,2.422,3.819,2.354,3.624S2.07,3.326,1.875,3.396C1.725,3.448,1.625,3.591,1.625,3.75z M2.125,3.75
		c0,0.069-0.056,0.125-0.125,0.125S1.875,3.819,1.875,3.75S1.931,3.625,2,3.625S2.125,3.681,2.125,3.75z"/>
</g>
</svg>
