<?xml version="1.0" encoding="UTF-8"?>
<svg width="16px" height="22px" viewBox="0 0 16 22" version="1.1" xmlns="http://www.w3.org/2000/svg" xmlns:xlink="http://www.w3.org/1999/xlink">
    <!-- Generator: Sketch 52.1 (67048) - http://www.bohemiancoding.com/sketch -->
    <title>Group 6</title>
    <desc>Created with Sketch.</desc>
    <defs>
        <polygon id="path-1" points="0 0.207658537 15.8447467 0.207658537 15.8447467 21.463361 0 21.463361"></polygon>
    </defs>
    <g id="Page-1" stroke="none" stroke-width="1" fill="none" fill-rule="evenodd" opacity="0.4">
        <g id="01-Menu-Expanded" transform="translate(-24.000000, -173.000000)">
            <g id="Group-6" transform="translate(24.000000, 173.000000)">
                <path d="M7.92256,12.935839 C8.40789333,12.935839 8.80256,13.3334488 8.80256,13.8212049 C8.80256,14.1608634 8.61109333,14.4651073 8.30282667,14.6153512 C8.13429333,14.6974488 8.03616,14.8766683 8.05642667,15.0628634 L8.31136,17.3637415 L7.53376,17.3637415 L7.78869333,15.0628634 C7.80896,14.8766683 7.71082667,14.6974488 7.54282667,14.6153512 C7.23402667,14.4651073 7.04256,14.1608634 7.04256,13.8212049 C7.04256,13.3334488 7.43722667,12.935839 7.92256,12.935839 M6.88256,15.245839 L6.60469333,17.7581317 C6.59082667,17.8831561 6.63082667,18.0081805 6.71402667,18.1020829 C6.79776,18.1959854 6.91722667,18.2496439 7.04256,18.2496439 L8.80256,18.2496439 C8.92789333,18.2496439 9.04736,18.1959854 9.13109333,18.1020829 C9.21429333,18.0087171 9.25429333,17.8831561 9.24042667,17.7581317 L8.96256,15.245839 C9.41376,14.915839 9.68309333,14.3937415 9.68309333,13.8212049 C9.68309333,12.8446195 8.89322667,12.0499366 7.92256,12.0499366 C6.95189333,12.0499366 6.16202667,12.8446195 6.16202667,13.8212049 C6.16202667,14.3937415 6.43136,14.915839 6.88256,15.245839" id="Fill-1" fill="#333333"></path>
                <g id="Group-5" transform="translate(0.000000, 0.328873)">
                    <mask id="mask-2" fill="white">
                        <use xlink:href="#path-1"></use>
                    </mask>
                    <g id="Clip-4"></g>
                    <path d="M14.9647467,19.6920927 C14.9647467,20.1803854 14.57008,20.5774585 14.0847467,20.5774585 L1.76048,20.5774585 C1.27514667,20.5774585 0.88048,20.1803854 0.88048,19.6920927 L0.88048,9.06394634 L14.9647467,9.06394634 L14.9647467,19.6920927 Z M11.44368,6.4073122 L11.44368,8.17858049 L4.40101333,8.17858049 L4.40101333,6.4073122 C4.40101333,4.45414146 5.98074667,2.86477561 7.92261333,2.86477561 C9.86448,2.86477561 11.44368,4.45414146 11.44368,6.4073122 Z M2.64101333,6.4073122 C2.64101333,3.47701951 5.01008,1.09350732 7.92261333,1.09350732 C10.8351467,1.09350732 13.2042133,3.47701951 13.2042133,6.4073122 L13.2042133,8.17858049 L12.3242133,8.17858049 L12.3242133,6.4073122 C12.3242133,3.9653122 10.3498133,1.97887317 7.92261333,1.97887317 C5.49541333,1.97887317 3.52101333,3.96584878 3.52101333,6.4073122 L3.52101333,8.17858049 L2.64101333,8.17858049 L2.64101333,6.4073122 Z M15.4047467,8.17858049 L14.0847467,8.17858049 L14.0847467,6.4073122 C14.0847467,2.98872683 11.32048,0.207604878 7.92261333,0.207604878 C4.52474667,0.207604878 1.76048,2.98872683 1.76048,6.4073122 L1.76048,8.17858049 L0.44048,8.17858049 C0.19728,8.17858049 -5.33333333e-05,8.37658049 -5.33333333e-05,8.62126341 L-5.33333333e-05,19.6920927 C-5.33333333e-05,20.6692146 0.789813333,21.463361 1.76048,21.463361 L14.0847467,21.463361 C15.0554133,21.463361 15.8447467,20.6692146 15.8447467,19.6920927 L15.8447467,8.62126341 C15.8447467,8.37658049 15.6479467,8.17858049 15.4047467,8.17858049 Z" id="Fill-3" fill="#333333" mask="url(#mask-2)"></path>
                </g>
            </g>
        </g>
    </g>
</svg>