<?xml version="1.0" encoding="UTF-8"?>
<svg width="19px" height="21px" viewBox="0 0 19 21" version="1.1" xmlns="http://www.w3.org/2000/svg" xmlns:xlink="http://www.w3.org/1999/xlink">
    <!-- Generator: Sketch 52.1 (67048) - http://www.bohemiancoding.com/sketch -->
    <title>Group 8</title>
    <desc>Created with Sketch.</desc>
    <defs>
        <polygon id="path-1" points="5.9375e-05 0.4332 18.5214375 0.4332 18.5214375 20.4 5.9375e-05 20.4"></polygon>
    </defs>
    <g id="Page-1" stroke="none" stroke-width="1" fill="none" fill-rule="evenodd" opacity="0.4">
        <g id="01-Menu-Expanded" transform="translate(-23.000000, -418.000000)">
            <g id="Group-8" transform="translate(23.000000, 418.000000)">
                <g id="Group-3" transform="translate(0.000000, 0.166920)">
                    <mask id="mask-2" fill="white">
                        <use xlink:href="#path-1"></use>
                    </mask>
                    <g id="Clip-2"></g>
                    <path d="M17.9425906,15.54738 L9.54993438,19.64178 L9.54993438,9.66198 L11.5520594,8.68578 C11.6957469,8.61558 11.7563094,8.44038 11.6868406,8.29518 C11.6173719,8.14938 11.4445906,8.08878 11.3003094,8.15898 L9.26077813,9.15378 L8.45802813,8.76258 C8.31434063,8.69238 8.14096563,8.75298 8.07149688,8.89878 C8.00262188,9.04398 8.06259063,9.21918 8.20687188,9.28938 L8.97162188,9.66198 L8.97162188,19.64178 L0.578965625,15.54738 L0.578965625,5.56818 L6.97009063,8.68578 C7.01046563,8.70558 7.05321563,8.71518 7.09477813,8.71518 C7.20284063,8.71518 7.30615313,8.65398 7.35602813,8.54958 C7.42549688,8.40438 7.36552813,8.22918 7.22124688,8.15898 L0.955403125,5.10198 L3.83034063,3.69918 L12.5252156,7.94118 C12.5264031,7.94298 12.5275906,7.94418 12.5287781,7.94598 L12.5287781,11.45598 C12.5287781,11.55678 12.5804344,11.64978 12.6641531,11.70378 C12.7110594,11.73318 12.7644969,11.74818 12.8185281,11.74818 C12.8612781,11.74818 12.9046219,11.73858 12.9444031,11.71938 L15.1098094,10.66278 C15.2095594,10.61418 15.2730906,10.51158 15.2730906,10.39938 L15.2730906,6.87018 L17.9425906,5.56818 L17.9425906,15.54738 Z M14.6941844,7.15278 L14.6941844,10.21578 L13.1076844,10.98978 L13.1076844,7.92678 L14.6941844,7.15278 Z M6.20652813,2.55198 L14.5000281,6.59778 L12.8019031,7.42638 L4.51196563,3.38238 L6.20652813,2.55198 Z M9.26077813,1.05018 L17.5661531,5.10198 L15.1590906,6.27678 C15.1436531,6.26478 15.1276219,6.25398 15.1098094,6.24558 L6.86084063,2.22138 L9.26077813,1.05018 Z M18.3576219,4.83858 L9.38665313,0.46218 C9.30709063,0.42318 9.21446563,0.42318 9.13490313,0.46218 L0.163934375,4.83858 C0.063590625,4.88718 5.9375e-05,4.98978 5.9375e-05,5.10198 L5.9375e-05,15.73098 C5.9375e-05,15.84318 0.063590625,15.94578 0.163934375,15.99438 L9.13490313,20.37078 C9.17468438,20.39058 9.21802813,20.40018 9.26077813,20.40018 C9.30352813,20.40018 9.34627813,20.39058 9.38665313,20.37078 L18.3576219,15.99438 C18.4579656,15.94578 18.5214969,15.84318 18.5214969,15.73098 L18.5214969,5.10198 C18.5214969,4.98978 18.4579656,4.88718 18.3576219,4.83858 Z" id="Fill-1" fill="#000000" mask="url(#mask-2)"></path>
                </g>
                <path d="M2.96720625,14.57988 L1.6508625,13.93788 C1.50658125,13.86768 1.3338,13.92828 1.26433125,14.07408 C1.1948625,14.21928 1.255425,14.39388 1.3991125,14.46468 L2.71545625,15.10668 C2.756425,15.12648 2.799175,15.13608 2.84133125,15.13608 C2.94939375,15.13608 3.05270625,15.07488 3.10258125,14.97048 C3.17205,14.82528 3.1114875,14.65008 2.96720625,14.57988" id="Fill-4" fill="#000000"></path>
                <path d="M4.17905,13.78302 L1.65264375,12.55062 C1.50895625,12.48042 1.33558125,12.54102 1.2661125,12.68682 C1.1972375,12.83202 1.25720625,13.00722 1.40089375,13.07742 L3.9273,14.30982 C3.96826875,14.32962 4.01101875,14.33862 4.053175,14.33862 C4.16064375,14.33862 4.26455,14.27802 4.314425,14.17362 C4.3833,14.02782 4.3227375,13.85322 4.17905,13.78302" id="Fill-6" fill="#000000"></path>
            </g>
        </g>
    </g>
</svg>