<?xml version="1.0" encoding="UTF-8"?>
<svg width="19px" height="19px" viewBox="0 0 19 19" version="1.1" xmlns="http://www.w3.org/2000/svg" xmlns:xlink="http://www.w3.org/1999/xlink">
    <!-- Generator: Sketch 52.1 (67048) - http://www.bohemiancoding.com/sketch -->
    <title>Group 18</title>
    <desc>Created with Sketch.</desc>
    <defs>
        <polygon id="path-1" points="0 0.304 18.8724286 0.304 18.8724286 18.547619 0 18.547619"></polygon>
    </defs>
    <g id="Page-1" stroke="none" stroke-width="1" fill="none" fill-rule="evenodd">
        <g id="01-Menu-Expanded" transform="translate(-23.000000, -228.000000)">
            <g id="Group-18" transform="translate(23.000000, 228.000000)">
                <g id="Group-3" transform="translate(0.000000, 0.148562)">
                    <mask id="mask-2" fill="white">
                        <use xlink:href="#path-1"></use>
                    </mask>
                    <g id="Clip-2"></g>
                    <path d="M3.14535952,17.9185381 L3.14535952,16.0312048 L17.2999071,16.0312048 C17.6400976,16.0316571 17.9712405,15.9208238 18.2435738,15.7158952 L18.2435738,17.9185381 L3.14535952,17.9185381 Z M0.629216667,14.4587286 L0.629216667,13.5150619 L15.7269786,13.5150619 L15.7269786,14.4587286 C15.7269786,14.798919 15.8373595,15.1300619 16.0422881,15.4023952 L1.57243095,15.4023952 C1.05174048,15.4014905 0.629669048,14.979419 0.629216667,14.4587286 Z M3.14535952,2.82032381 L4.40343095,2.82032381 L4.40343095,5.96618095 C4.40343095,6.66058571 4.96664524,7.22425238 5.66150238,7.22425238 C6.3568119,7.22425238 6.92002619,6.66058571 6.92002619,5.96618095 L6.92002619,3.76399048 C6.92002619,3.59027619 6.77888333,3.44958571 6.60516905,3.44958571 C6.43190714,3.44958571 6.29076429,3.59027619 6.29076429,3.76399048 L6.29076429,5.96618095 C6.29076429,6.31360952 6.00893095,6.59499048 5.66150238,6.59499048 C5.31452619,6.59499048 5.03269286,6.31360952 5.03269286,5.96618095 L5.03269286,2.82032381 L18.2435738,2.82032381 L18.2435738,14.4587286 C18.2435738,14.979419 17.8205976,15.4023952 17.2999071,15.4023952 C16.7787643,15.4023952 16.3562405,14.979419 16.3562405,14.4587286 L16.3562405,13.2002048 C16.3562405,13.0269429 16.21555,12.8858 16.0418357,12.8858 L3.14535952,12.8858 L3.14535952,2.82032381 Z M6.60516905,0.933442857 C7.35250238,0.934347619 7.99624048,1.4595619 8.14688333,2.19151429 L5.06435952,2.19151429 C5.21500238,1.46001429 5.8582881,0.934347619 6.60516905,0.933442857 Z M18.5579786,2.19151429 L8.7842881,2.19151429 C8.61057381,0.988180952 7.49455,0.153085714 6.29121667,0.3268 C5.32493095,0.465680952 4.56583571,1.22522857 4.42650238,2.19151429 L2.83095476,2.19151429 C2.65724048,2.19151429 2.51609762,2.33220476 2.51609762,2.50591905 L2.51609762,12.8858 L0.314359524,12.8858 C0.140645238,12.8858 -4.52380952e-05,13.0269429 -4.52380952e-05,13.2002048 L-4.52380952e-05,14.4587286 C0.00085952381,15.3268476 0.704311905,16.0303 1.57243095,16.0312048 L2.51609762,16.0312048 L2.51609762,18.2329429 C2.51609762,18.4066571 2.65724048,18.5478 2.83095476,18.5478 L18.5579786,18.5478 C18.7316929,18.5478 18.8728357,18.4066571 18.8728357,18.2329429 L18.8728357,2.50591905 C18.8728357,2.33220476 18.7316929,2.19151429 18.5579786,2.19151429 Z" id="Fill-1" fill="#333333" mask="url(#mask-2)"></path>
                </g>
                <path d="M13.5254214,9.25983095 L8.49268333,9.25983095 C8.31896905,9.25983095 8.17827857,9.40097381 8.17827857,9.57423571 C8.17827857,9.74840238 8.31896905,9.88909286 8.49268333,9.88909286 L13.5254214,9.88909286 C13.6991357,9.88909286 13.8398262,9.74840238 13.8398262,9.57423571 C13.8398262,9.40097381 13.6991357,9.25983095 13.5254214,9.25983095" id="Fill-4" fill="#333333"></path>
                <path d="M12.8962952,11.147119 L4.71815238,11.147119 C4.5444381,11.147119 4.40374762,11.2882619 4.40374762,11.4615238 C4.40374762,11.6356905 4.5444381,11.776381 4.71815238,11.776381 L12.8962952,11.776381 C13.0700095,11.776381 13.2107,11.6356905 13.2107,11.4615238 C13.2107,11.2882619 13.0700095,11.147119 12.8962952,11.147119" id="Fill-6" fill="#333333"></path>
                <path d="M8.49268333,6.1145619 L14.1546833,6.1145619 C14.3279452,6.1145619 14.4690881,5.97341905 14.4690881,5.80015714 C14.4690881,5.62599048 14.3279452,5.4853 14.1546833,5.4853 L8.49268333,5.4853 C8.31896905,5.4853 8.17827857,5.62599048 8.17827857,5.80015714 C8.17827857,5.97341905 8.31896905,6.1145619 8.49268333,6.1145619" id="Fill-8" fill="#333333"></path>
                <path d="M10.0653857,7.68730952 C10.0653857,7.86102381 10.2065286,8.00171429 10.3797905,8.00171429 L16.6710524,8.00171429 C16.8443143,8.00171429 16.9854571,7.86102381 16.9854571,7.68730952 C16.9854571,7.51359524 16.8443143,7.37290476 16.6710524,7.37290476 L10.3797905,7.37290476 C10.2065286,7.37290476 10.0653857,7.51359524 10.0653857,7.68730952" id="Fill-10" fill="#333333"></path>
                <path d="M16.9854119,9.57437143 C16.9854119,9.40065714 16.844269,9.25996667 16.6710071,9.25996667 L14.7836738,9.25996667 C14.6099595,9.25996667 14.469269,9.40065714 14.469269,9.57437143 C14.469269,9.74808571 14.6099595,9.88877619 14.7836738,9.88877619 L16.6710071,9.88877619 C16.844269,9.88877619 16.9854119,9.74808571 16.9854119,9.57437143" id="Fill-12" fill="#333333"></path>
                <path d="M8.49268333,8.00185 L9.12194524,8.00185 C9.29520714,8.00185 9.43635,7.86070714 9.43635,7.68744524 C9.43635,7.51327857 9.29520714,7.3725881 9.12194524,7.3725881 L8.49268333,7.3725881 C8.31896905,7.3725881 8.17827857,7.51327857 8.17827857,7.68744524 C8.17827857,7.86070714 8.31896905,8.00185 8.49268333,8.00185" id="Fill-14" fill="#333333"></path>
                <path d="M4.71810714,9.8889119 L7.23425,9.8889119 C7.40796429,9.8889119 7.54910714,9.74822143 7.54910714,9.57450714 C7.54910714,9.40079286 7.40796429,9.25965 7.23425,9.25965 L4.71810714,9.25965 C4.54439286,9.25965 4.40370238,9.40079286 4.40370238,9.57450714 C4.40370238,9.74822143 4.54439286,9.8889119 4.71810714,9.8889119" id="Fill-16" fill="#333333"></path>
            </g>
        </g>
    </g>
</svg>