<?xml version="1.0" encoding="UTF-8"?>
<svg width="20px" height="19px" viewBox="0 0 20 19" version="1.1" xmlns="http://www.w3.org/2000/svg" xmlns:xlink="http://www.w3.org/1999/xlink">
    <!-- Generator: Sketch 52.1 (67048) - http://www.bohemiancoding.com/sketch -->
    <title>Group 10</title>
    <desc>Created with Sketch.</desc>
    <defs>
        <polygon id="path-1" points="0 0.45030303 19.3945455 0.45030303 19.3945455 10.3026826 0 10.3026826"></polygon>
    </defs>
    <g id="Page-1" stroke="none" stroke-width="1" fill="none" fill-rule="evenodd" opacity="0.4">
        <g id="01-Menu-Expanded" transform="translate(-22.000000, -126.000000)">
            <g id="Group-10" transform="translate(22.000000, 126.000000)">
                <path d="M16.970303,18.943697 L11.3139394,18.943697 L11.3139394,13.6909697 L8.08121212,13.6909697 L8.08121212,18.943697 L2.42424242,18.943697 L2.42424242,10.4588485 C2.42424242,10.2352121 2.60484848,10.0546061 2.82848485,10.0546061 C3.05212121,10.0546061 3.23272727,10.2352121 3.23272727,10.4588485 L3.23272727,18.1358182 L7.27333333,18.1358182 L7.27333333,12.8830909 L12.1218182,12.8830909 L12.1218182,18.1358182 L16.1624242,18.1358182 L16.1624242,10.8624848 C16.1624242,10.6394545 16.3430303,10.4588485 16.5666667,10.4588485 C16.789697,10.4588485 16.970303,10.6394545 16.970303,10.8624848 L16.970303,18.943697 Z" id="Fill-1" fill="#333333"></path>
                <g id="Group-5" transform="translate(0.000000, 0.155879)">
                    <mask id="mask-2" fill="white">
                        <use xlink:href="#path-1"></use>
                    </mask>
                    <g id="Clip-4"></g>
                    <path d="M18.9909091,10.3026667 C18.890303,10.3026667 18.790303,10.2650909 18.7115152,10.1905455 L9.69757576,1.56872727 L0.683636364,10.1905455 C0.521818182,10.3444848 0.266060606,10.3396364 0.112121212,10.1778182 C-0.0424242424,10.0172121 -0.0363636364,9.76084848 0.124242424,9.60690909 L9.69757576,0.449939394 L19.270303,9.60630303 C19.4309091,9.76084848 19.4369697,10.0166061 19.2824242,10.1778182 C19.2036364,10.2608485 19.0975758,10.3026667 18.9909091,10.3026667" id="Fill-3" fill="#333333" mask="url(#mask-2)"></path>
                </g>
                <path d="M15.7581818,5.60975758 C15.5351515,5.60975758 15.3545455,5.42915152 15.3545455,5.20551515 L15.3545455,2.78127273 L12.929697,2.78127273 C12.7066667,2.78127273 12.5260606,2.60066667 12.5260606,2.37763636 C12.5260606,2.15460606 12.7066667,1.97339394 12.929697,1.97339394 L16.1624242,1.97339394 L16.1624242,5.20551515 C16.1624242,5.42915152 15.9818182,5.60975758 15.7581818,5.60975758" id="Fill-6" fill="#333333"></path>
            </g>
        </g>
    </g>
</svg>