<?xml version="1.0" encoding="UTF-8"?>
<svg width="22px" height="22px" viewBox="0 0 22 22" version="1.1" xmlns="http://www.w3.org/2000/svg" xmlns:xlink="http://www.w3.org/1999/xlink">
    <!-- Generator: Sketch 52.1 (67048) - http://www.bohemiancoding.com/sketch -->
    <title>Group 11</title>
    <desc>Created with Sketch.</desc>
    <defs>
        <polygon id="path-1" points="0 0.0241568627 21.975228 0.0241568627 21.975228 21.5684118 0 21.5684118"></polygon>
        <polygon id="path-3" points="0 21.9758431 21.97536 21.9758431 21.97536 0.431372549 0 0.431372549"></polygon>
    </defs>
    <g id="Page-1" stroke="none" stroke-width="1" fill="none" fill-rule="evenodd" opacity="0.4">
        <g id="01-Menu-Expanded" transform="translate(-20.000000, -467.000000)">
            <g id="Group-11" transform="translate(20.000000, 467.000000)">
                <g id="Group-3" transform="translate(0.000000, 0.407216)">
                    <mask id="mask-2" fill="white">
                        <use xlink:href="#path-1"></use>
                    </mask>
                    <g id="Clip-2"></g>
                    <path d="M21.266388,16.7038235 L20.557548,16.7038235 L20.557548,10.7966078 C20.557548,10.7547647 20.550068,10.7133529 20.535108,10.6745294 L19.472068,7.89476471 C19.420148,7.75888235 19.287708,7.66915686 19.139868,7.66915686 C18.992028,7.66915686 18.859588,7.75888235 18.807668,7.89476471 L17.744188,10.6745294 C17.729668,10.7133529 17.721748,10.7547647 17.721748,10.7966078 L17.721748,16.7038235 L10.633348,16.7038235 L10.633348,13.5763725 C10.633348,13.4517059 10.565148,13.3365294 10.454708,13.2748431 L9.215228,12.5803333 L9.215228,0.719313725 L17.721748,0.719313725 L17.721748,3.84633333 C17.721748,4.03829412 17.880588,4.19401961 18.076388,4.19401961 L21.266388,4.19401961 L21.266388,16.7038235 Z M19.139868,20.873902 C18.748708,20.873902 18.431028,20.5620196 18.431028,20.1785294 L18.431028,19.4835882 L19.848708,19.4835882 L19.848708,20.1785294 C19.848708,20.5620196 19.531028,20.873902 19.139868,20.873902 Z M19.139868,11.073549 L18.507148,10.6602941 L19.139868,9.00598039 L19.772148,10.6602941 L19.139868,11.073549 Z M19.494508,11.6774706 L19.848708,11.4458235 L19.848708,18.7886471 L19.494508,18.7886471 L19.494508,11.6774706 Z M18.785228,11.6774706 L18.785228,18.7886471 L18.431028,18.7886471 L18.431028,11.4458235 L18.785228,11.6774706 Z M5.671028,20.6224118 L5.671028,16.5580196 L6.734508,15.9622941 L6.734508,17.0510784 C6.734508,17.1718627 6.798308,17.2835882 6.902588,17.347 C6.959348,17.3815098 7.024028,17.3987647 7.088708,17.3987647 C7.142828,17.3987647 7.196948,17.3866863 7.247548,17.362098 L8.664788,16.6671569 C8.785348,16.6080588 8.861028,16.4881373 8.861028,16.3561373 L8.861028,14.7712745 L9.924508,14.175549 L9.924508,18.2399412 L5.671028,20.6224118 Z M0.708708,14.1751176 L4.962188,16.5580196 L4.962188,20.6224118 L0.708708,18.2399412 L0.708708,14.1751176 Z M2.171268,12.9586471 L6.419028,15.3385294 L5.316828,15.9558235 L1.069068,13.5763725 L2.171268,12.9586471 Z M7.264708,15.0124118 L2.885388,12.5587647 L3.500068,12.2145294 L8.152188,14.820451 L8.152188,16.1413137 L7.443348,16.489 L7.443348,15.3139412 C7.443348,15.1888431 7.375148,15.074098 7.264708,15.0124118 Z M5.316828,11.1964902 L9.564148,13.5763725 L8.461948,14.1936667 L4.214628,11.8142157 L5.316828,11.1964902 Z M18.431028,1.21021569 L20.765228,3.49907843 L18.431028,3.49907843 L18.431028,1.21021569 Z M21.870948,3.60045098 L18.327188,0.126176471 C18.263388,0.0631960784 18.174948,0.0239411765 18.076388,0.0239411765 L8.861028,0.0239411765 C8.664788,0.0239411765 8.506388,0.179666667 8.506388,0.371627451 L8.506388,12.1834706 L5.492388,10.4946471 C5.383268,10.4333922 5.249508,10.4333922 5.140828,10.4946471 L0.178508,13.2748431 C0.068068,13.3365294 -0.000132,13.4517059 -0.000132,13.5763725 L-0.000132,18.4413922 C-0.000132,18.5660588 0.068068,18.6808039 0.178508,18.7429216 L5.140828,21.5226863 C5.195388,21.5533137 5.255668,21.5684118 5.316828,21.5684118 C5.377548,21.5684118 5.437828,21.5533137 5.492388,21.5226863 L10.454708,18.7429216 C10.565148,18.6808039 10.633348,18.5660588 10.633348,18.4413922 L10.633348,17.3987647 L17.721748,17.3987647 L17.721748,20.1785294 C17.721748,20.9455098 18.357988,21.5684118 19.139868,21.5684118 C19.921748,21.5684118 20.557548,20.9455098 20.557548,20.1785294 L20.557548,17.3987647 L21.621028,17.3987647 C21.816828,17.3987647 21.975228,17.2430392 21.975228,17.0510784 L21.975228,3.84633333 C21.975228,3.75056863 21.935628,3.66343137 21.870948,3.60045098 Z" id="Fill-1" fill="#333333" mask="url(#mask-2)"></path>
                </g>
                <mask id="mask-4" fill="white">
                    <use xlink:href="#path-3"></use>
                </mask>
                <g id="Clip-5"></g>
                <polygon id="Fill-4" fill="#333333" mask="url(#mask-4)" points="9.9242 5.99133333 10.63304 5.99133333 10.63304 5.29639216 9.9242 5.29639216"></polygon>
                <polygon id="Fill-6" fill="#333333" mask="url(#mask-4)" points="11.34232 5.99133333 20.55724 5.99133333 20.55724 5.29639216 11.34232 5.29639216"></polygon>
                <polygon id="Fill-7" fill="#333333" mask="url(#mask-4)" points="19.84884 7.38121569 20.55724 7.38121569 20.55724 6.68627451 19.84884 6.68627451"></polygon>
                <polygon id="Fill-8" fill="#333333" mask="url(#mask-4)" points="9.9242 7.38121569 19.13956 7.38121569 19.13956 6.68627451 9.9242 6.68627451"></polygon>
                <polygon id="Fill-9" fill="#333333" mask="url(#mask-4)" points="9.9242 8.77109804 17.01304 8.77109804 17.01304 8.07615686 9.9242 8.07615686"></polygon>
                <polygon id="Fill-10" fill="#333333" mask="url(#mask-4)" points="9.9242 10.1609804 17.01304 10.1609804 17.01304 9.46603922 9.9242 9.46603922"></polygon>
            </g>
        </g>
    </g>
</svg>