<?xml version="1.0" encoding="UTF-8"?>
<svg width="18px" height="18px" viewBox="0 0 18 18" version="1.1" xmlns="http://www.w3.org/2000/svg" xmlns:xlink="http://www.w3.org/1999/xlink">
    <!-- Generator: Sketch 52.1 (67048) - http://www.bohemiancoding.com/sketch -->
    <title>Group 8</title>
    <desc>Created with Sketch.</desc>
    <g id="Page-1" stroke="none" stroke-width="1" fill="none" fill-rule="evenodd" opacity="0.4">
        <g id="01-Menu-Expanded" transform="translate(-25.000000, -517.000000)" fill="#333333">
            <g id="Group-8" transform="translate(25.000000, 517.000000)">
                <path d="M11.9021538,17.0232923 L13.4247692,17.0232923 L13.4247692,10.2068308 L11.9021538,10.2068308 L11.9021538,17.0232923 Z M8.30353846,17.0232923 L9.82615385,17.0232923 L9.82615385,12.6289846 L8.30353846,12.6289846 L8.30353846,17.0232923 Z M4.70538462,17.0232923 L6.22753846,17.0232923 L6.22753846,14.6140615 L4.70538462,14.6140615 L4.70538462,17.0232923 Z M10.656,1.18144615 L12.7961538,3.3216 L11.0016923,3.3216 C10.8110769,3.3216 10.656,3.16652308 10.656,2.97590769 L10.656,1.18144615 Z M17.3690769,7.22252308 L15.1546154,7.22252308 C14.9635385,7.22252308 14.8084615,7.3776 14.8084615,7.56867692 L14.8084615,9.31606154 C14.8084615,9.50713846 14.9635385,9.66175385 15.1546154,9.66175385 C15.3456923,9.66175385 15.5007692,9.50713846 15.5007692,9.31606154 L15.5007692,7.91483077 L17.0229231,7.91483077 L17.0229231,17.0232923 L16.2623077,17.0232923 L15.5007692,17.0232923 L15.5007692,11.9108308 C15.5007692,11.7197538 15.3456923,11.5646769 15.1546154,11.5646769 C14.9635385,11.5646769 14.8084615,11.7197538 14.8084615,11.9108308 L14.8084615,17.0232923 L14.1166154,17.0232923 L14.1166154,9.86113846 C14.1166154,9.67006154 13.9615385,9.51498462 13.7704615,9.51498462 L11.556,9.51498462 C11.3649231,9.51498462 11.2103077,9.67006154 11.2103077,9.86113846 L11.2103077,17.0232923 L10.518,17.0232923 L10.518,12.2828308 C10.518,12.0917538 10.3633846,11.9371385 10.1723077,11.9371385 L7.95830769,11.9371385 C7.76676923,11.9371385 7.61215385,12.0917538 7.61215385,12.2828308 L7.61215385,17.0232923 L6.91984615,17.0232923 L6.91984615,14.2679077 C6.91984615,14.0768308 6.76523077,13.9222154 6.57369231,13.9222154 L4.35969231,13.9222154 C4.16861538,13.9222154 4.01353846,14.0768308 4.01353846,14.2679077 L4.01353846,17.0232923 L1.038,17.0232923 C0.846923077,17.0232923 0.691846154,16.8677538 0.691846154,16.6771385 L0.691846154,1.03790769 C0.691846154,0.847292308 0.846923077,0.691753846 1.038,0.691753846 L9.96369231,0.691753846 L9.96369231,2.97590769 C9.96369231,3.54821538 10.4293846,4.01390769 11.0016923,4.01390769 L13.2853846,4.01390769 L13.2853846,8.26929231 C13.2853846,8.46036923 13.44,8.61544615 13.6315385,8.61544615 C13.8226154,8.61544615 13.9776923,8.46036923 13.9776923,8.26929231 L13.9776923,3.66775385 C13.9776923,3.57590769 13.9407692,3.48775385 13.8761538,3.42313846 L10.5544615,0.101446154 C10.4898462,0.0363692308 10.4012308,-9.23076923e-05 10.3098462,-9.23076923e-05 L1.038,-9.23076923e-05 C0.465692308,-9.23076923e-05 0,0.4656 0,1.03790769 L0,16.6771385 C0,17.2494462 0.465692308,17.7151385 1.038,17.7151385 L17.3690769,17.7151385 C17.5601538,17.7151385 17.7152308,17.5600615 17.7152308,17.3689846 L17.7152308,7.56867692 C17.7152308,7.3776 17.5601538,7.22252308 17.3690769,7.22252308 Z" id="Fill-1"></path>
                <path d="M15.3995077,10.3044462 C15.3348923,10.2398308 15.2458154,10.2029077 15.1548923,10.2029077 C15.0635077,10.2029077 14.9744308,10.2398308 14.9098154,10.3044462 C14.8461231,10.3690615 14.8087385,10.4581385 14.8087385,10.5490615 C14.8087385,10.6404462 14.8461231,10.7295231 14.9098154,10.7936769 C14.9744308,10.8582923 15.0635077,10.8952154 15.1548923,10.8952154 C15.2458154,10.8952154 15.3348923,10.8582923 15.3995077,10.7936769 C15.4641231,10.7295231 15.5010462,10.6404462 15.5010462,10.5490615 C15.5010462,10.4581385 15.4641231,10.3690615 15.3995077,10.3044462" id="Fill-3"></path>
                <path d="M5.38310769,5.6796 L5.38310769,2.60252308 C7.00403077,2.76544615 8.2968,4.05867692 8.45972308,5.6796 L5.38310769,5.6796 Z M5.03695385,8.51621538 C3.66341538,8.51621538 2.54649231,7.39883077 2.54649231,6.02575385 C2.54649231,4.76990769 3.48110769,3.72821538 4.6908,3.55929231 L4.6908,6.02575385 C4.6908,6.21683077 4.84587692,6.37190769 5.03695385,6.37190769 L7.50341538,6.37190769 C7.33449231,7.5816 6.2928,8.51621538 5.03695385,8.51621538 Z M5.03695385,1.8936 C4.84587692,1.8936 4.6908,2.04867692 4.6908,2.23975385 L4.6908,2.86190769 C3.09849231,3.03498462 1.85418462,4.38775385 1.85418462,6.02575385 C1.85418462,7.78052308 3.28218462,9.20806154 5.03695385,9.20806154 C6.67495385,9.20806154 8.02726154,7.96421538 8.20033846,6.37190769 L8.82295385,6.37190769 C9.01403077,6.37190769 9.16910769,6.21683077 9.16910769,6.02575385 C9.16910769,3.74713846 7.31556923,1.8936 5.03695385,1.8936 Z" id="Fill-4"></path>
                <path d="M8.823,10.1809385 L2.21469231,10.1809385 C2.02361538,10.1809385 1.86853846,10.3360154 1.86853846,10.5270923 C1.86853846,10.7181692 2.02361538,10.8732462 2.21469231,10.8732462 L8.823,10.8732462 C9.01407692,10.8732462 9.16915385,10.7181692 9.16915385,10.5270923 C9.16915385,10.3360154 9.01407692,10.1809385 8.823,10.1809385" id="Fill-5"></path>
                <path d="M4.42892308,11.8504154 L2.21446154,11.8504154 C2.02338462,11.8504154 1.86830769,12.0054923 1.86830769,12.1965692 C1.86830769,12.3876462 2.02338462,12.5427231 2.21446154,12.5427231 L4.42892308,12.5427231 C4.62,12.5427231 4.77461538,12.3876462 4.77461538,12.1965692 C4.77461538,12.0054923 4.62,11.8504154 4.42892308,11.8504154" id="Fill-6"></path>
                <path d="M6.40624615,11.9518615 C6.34163077,11.8872462 6.25255385,11.8503231 6.16163077,11.8503231 C6.06978462,11.8503231 5.98116923,11.8872462 5.91655385,11.9518615 C5.8524,12.0164769 5.81547692,12.1055538 5.81547692,12.1964769 C5.81547692,12.2874 5.8524,12.3764769 5.91655385,12.4410923 C5.98116923,12.5052462 6.06978462,12.5426308 6.16163077,12.5426308 C6.25255385,12.5426308 6.34163077,12.5052462 6.40624615,12.4410923 C6.47086154,12.3764769 6.50778462,12.2874 6.50778462,12.1964769 C6.50778462,12.1055538 6.47086154,12.0164769 6.40624615,11.9518615" id="Fill-7"></path>
            </g>
        </g>
    </g>
</svg>