<?xml version="1.0" encoding="UTF-8"?>
<svg width="20px" height="12px" viewBox="0 0 20 12" version="1.1" xmlns="http://www.w3.org/2000/svg" xmlns:xlink="http://www.w3.org/1999/xlink">
    <!-- Generator: Sketch 52.1 (67048) - http://www.bohemiancoding.com/sketch -->
    <title>iconfinder_Sed-15_2236084</title>
    <desc>Created with Sketch.</desc>
    <g id="Page-1" stroke="none" stroke-width="1" fill="none" fill-rule="evenodd">
        <g id="03-Shipment-Order-List" transform="translate(-204.000000, -29.000000)" fill="#3673FF">
            <g id="iconfinder_Sed-15_2236084" transform="translate(214.000000, 35.000000) rotate(-270.000000) translate(-214.000000, -35.000000) translate(208.000000, 25.000000)">
                <path d="M9.14046,0.298993333 L2.85204667,0.298993333 C2.24169333,0.298993333 1.72574667,0.81462 1.72574667,1.42496667 C1.72574667,1.64676667 1.79540667,1.8608 1.91601333,2.0415 L2.64384,2.0415 L9.33956,2.0415 L10.07442,2.0415 C10.1211333,1.97102667 10.1649933,1.89835333 10.19482,1.81884667 C10.2423467,1.69287333 10.2664333,1.56006 10.2664333,1.42496667 C10.26644,0.8042 9.76123333,0.298993333 9.14046,0.298993333 Z" id="Path"></path>
                <path d="M11.62516,12.4259467 C11.62516,12.1124733 11.56038,11.7950867 11.43766,11.5083067 C11.3191733,11.2299867 11.1420867,10.9698933 10.9256133,10.75538 C10.7625267,10.5935933 10.5707933,10.4546 10.3396733,10.3299267 C10.2049067,10.2573333 10.0649333,10.2146933 9.92952,10.1733533 C9.85465333,10.1505667 9.77945333,10.1281067 9.70784,10.0997867 C9.10464667,9.86150667 8.61604,9.52622 8.29475333,9.13006 C8.19058667,9.00213333 8.18798,8.88657333 8.19221333,8.65838 L8.19384,8.53761333 L8.19123333,3.41164 C8.19611333,3.39732 8.22150667,3.36118667 8.2622,3.30291333 C8.3081,3.23422667 8.35855333,3.16847333 8.41259333,3.1063 C8.52164,2.98162667 8.64436667,2.87225333 8.7775,2.78143333 C8.88329333,2.70949333 8.99592667,2.64732 9.11213333,2.59490667 C9.18895333,2.5604 9.27131333,2.5425 9.35302,2.52362 L9.41792,2.50832 L8.38834,2.50832 L3.57808,2.50832 L2.55696,2.49932667 C2.59,2.50836 2.6217,2.52211333 2.65543333,2.52785333 C2.80354667,2.55292 2.94938,2.63136667 3.07275333,2.70493333 C3.20947333,2.78631333 3.33382,2.88169333 3.44287333,2.98878667 C3.51969333,3.06365333 3.59000667,3.14568667 3.68408667,3.27492 C3.71175333,3.31138 3.76286,3.37908667 3.76807333,3.40057333 L3.76742,3.82863333 L3.76839333,8.7453 C3.77034667,8.88266667 3.76936667,8.95135333 3.72282,9.01743333 C3.37484,9.50962 2.78988,9.92140667 2.13102,10.1434067 C1.73453333,10.2508267 1.3667,10.46144 1.06266,10.75636 C0.6193,11.20916 0.374833333,11.8019333 0.374833333,12.4259533 C0.374833333,12.4714467 0.378533333,12.5216533 0.38338,12.5697533 C0.38334,12.5710533 0.382646667,12.5721133 0.382646667,12.5734133 C0.382646667,12.5757733 0.383906667,12.5777267 0.383986667,12.5800867 C0.385206667,12.5907067 0.384233333,12.60202 0.3859,12.6121533 C0.386753333,12.61716 0.39184,12.61968 0.39298,12.6245667 C0.404046667,12.67234 0.426753333,12.7144133 0.462113333,12.7459467 C0.466713333,12.7501 0.471673333,12.7520067 0.47664,12.7557533 C0.515946667,12.78582 0.56274,12.80682 0.616046667,12.80682 L5.38232,12.80682 L5.38411333,12.80682 L5.84912,12.80682 L6.19742667,12.80682 L6.66422667,12.80682 L6.66602,12.80682 L11.3839533,12.80682 C11.43726,12.80682 11.4840533,12.7858267 11.52336,12.7557533 C11.5283267,12.7520067 11.5332867,12.7501 11.5378867,12.7459467 C11.5732467,12.7144133 11.5959533,12.67234 11.60702,12.6245667 C11.60816,12.6196867 11.6132467,12.61716 11.6141,12.6121533 C11.6157667,12.60202 11.6147933,12.5907067 11.6160133,12.5800867 C11.6160933,12.5777267 11.6173533,12.5757733 11.6173533,12.5734133 C11.6173533,12.5721133 11.61666,12.5710533 11.61662,12.5697533 C11.62146,12.5216467 11.62516,12.4714333 11.62516,12.4259467 Z M8.90836667,11.3719067 C9.03727333,11.3719067 9.14176667,11.4764 9.14176667,11.6053067 C9.14176667,11.7342133 9.03727333,11.8387067 8.90836667,11.8387067 L8.31071333,11.8387067 C8.18180667,11.8387067 8.07731333,11.7342133 8.07731333,11.6053067 C8.07731333,11.4764 8.18180667,11.3719067 8.31071333,11.3719067 L8.90836667,11.3719067 Z M5.06656667,11.3719067 L7.27197333,11.3719067 C7.40088,11.3719067 7.50537333,11.4764 7.50537333,11.6053067 C7.50537333,11.7342133 7.40088,11.8387067 7.27197333,11.8387067 L5.06656667,11.8387067 C4.93766,11.8387067 4.83316667,11.7342133 4.83316667,11.6053067 C4.83316667,11.4764 4.93766,11.3719067 5.06656667,11.3719067 Z" id="Shape" fill-rule="nonzero"></path>
                <path d="M6.19742667,13.4558133 L5.84912,13.4558133 L5.38411333,13.4558133 L5.38232,14.5532267 C5.38232,14.5559533 5.38378667,14.5581933 5.38386667,14.5608733 L5.3859,17.1792 L5.79736,19.5083 C5.81722,19.6196267 5.91389333,19.7010067 6.02718,19.7010067 L6.02750667,19.7010067 C6.14078667,19.70068 6.23779333,19.6189733 6.257,19.50732 L6.66422667,17.1385067 L6.66422667,14.55322 L6.66422667,13.4558067 L6.19742667,13.4558067 L6.19742667,13.4558133 Z" id="Path"></path>
            </g>
        </g>
    </g>
</svg>