<?xml version="1.0" encoding="UTF-8"?>
<svg width="19px" height="23px" viewBox="0 0 19 23" version="1.1" xmlns="http://www.w3.org/2000/svg" xmlns:xlink="http://www.w3.org/1999/xlink">
    <!-- Generator: Sketch 52.1 (67048) - http://www.bohemiancoding.com/sketch -->
    <title>file</title>
    <desc>Created with Sketch.</desc>
    <g id="Page-1" stroke="none" stroke-width="1" fill="none" fill-rule="evenodd">
        <g id="2-Main-Closed-menu" transform="translate(-896.000000, -109.000000)" fill="#FFFFFF" stroke="#FFFFFF" stroke-width="0.5">
            <g id="file" transform="translate(896.500000, 110.000000)">
                <path d="M0.696128731,17.0359142 C1.08687036,17.4250816 1.61613806,17.6428405 2.16761893,17.6412663 L2.17793843,17.6412663 L8.65858209,17.6055853 C9.29139457,19.9458372 11.5861707,21.4332439 13.9808186,21.0550956 C16.3756413,20.6771222 18.1005714,18.5551539 17.9816348,16.1337453 C17.8626982,13.7121618 15.9381996,11.7694729 13.5178405,11.6279734 L13.4830341,4.84946364 C13.4826842,4.7781017 13.4539995,4.70971316 13.4032766,4.65968982 L8.7762943,0.0865788358 C8.73239275,0.0430270746 8.67467351,0.0159165224 8.61293145,0.0101445672 L8.51673273,0.00122434925 C8.50781248,0.000349813433 8.49889227,2.84217094e-14 8.48979712,2.84217094e-14 L2.09310869,0.0307835821 C0.938199627,0.036380597 0.00647153731,0.977028896 0.0118936567,2.13193796 L0.0764342239,15.5600513 C0.0774836866,16.1150303 0.300664657,16.6463969 0.696128731,17.0359142 Z M17.4500933,16.3660214 C17.4474697,18.6893074 15.5645989,20.5721781 13.2411381,20.5749767 C10.9166278,20.5749767 9.03218284,18.6905317 9.03218284,16.3660214 C9.03218284,14.0413363 10.9166278,12.1570662 13.2411381,12.1570662 C15.5645989,12.1596898 17.4474697,14.0425607 17.4500933,16.3660214 Z M12.5733442,4.59462452 L10.4214669,4.60511893 L10.413771,4.60511893 C9.55847713,4.60476913 8.86409749,3.91371269 8.86007463,3.05841887 L8.84975512,0.914412313 L12.5733442,4.59462452 Z M0.999067164,1.0282766 C1.28853779,0.734433313 1.68347713,0.568621746 2.0957323,0.567747224 L8.3105177,0.53801306 L8.3225863,3.06104243 C8.32818331,4.21210352 9.26270991,5.14225746 10.4135961,5.14243236 L10.4239156,5.14243236 L12.9471199,5.13036381 L12.9805271,11.626749 C10.4641441,11.7649254 8.49469451,13.8457906 8.4948694,16.3660214 C8.4948694,16.601271 8.51236007,16.8361707 8.54681669,17.0689715 L2.17531482,17.1041278 L2.16744403,17.1041278 C1.3123251,17.1039529 0.617945418,16.4127215 0.613747657,15.5574277 L0.54920709,2.12931439 C0.546058746,1.71688433 0.708022388,1.32054573 0.999067164,1.0282766 Z" id="Shape" fill-rule="nonzero"></path>
                <path d="M7.41429573,9.91878497 L6.50303172,9.91878497 C6.35471082,9.91878497 6.234375,10.0389459 6.234375,10.1874417 C6.234375,10.3357626 6.35471082,10.4560984 6.50303172,10.4560984 L7.41429573,10.4560984 C7.56261663,10.4560984 7.68295245,10.3357626 7.68295245,10.1874417 C7.68295245,10.0389459 7.56261663,9.91878497 7.41429573,9.91878497 Z" id="Path"></path>
                <path d="M2.99072996,8.1775886 L10.5552705,8.1775886 C10.7035914,8.1775886 10.8239272,8.05742772 10.8239272,7.90893188 C10.8239272,7.76061099 10.7035914,7.64027516 10.5552705,7.64027516 L2.99072996,7.64027516 C2.84223412,7.64027516 2.72207324,7.76061099 2.72207324,7.90893188 C2.72207324,8.05742772 2.84223412,8.1775886 2.99072996,8.1775886 Z" id="Path"></path>
                <path d="M2.99072996,10.4560984 L5.34847249,10.4560984 C5.49696828,10.4560984 5.61712921,10.3357626 5.61712921,10.1874417 C5.61712921,10.0389459 5.49696828,9.91878497 5.34847249,9.91878497 L2.99072996,9.91878497 C2.84223412,9.91878497 2.72207324,10.0389459 2.72207324,10.1874417 C2.72207324,10.3357626 2.84223412,10.4560984 2.99072996,10.4560984 Z" id="Path"></path>
                <path d="M13.1106577,14.2778102 C13.1106577,14.1294893 12.9903219,14.0091535 12.842001,14.0091535 C12.6935051,14.0091535 12.5733442,14.1294893 12.5733442,14.2778102 L12.5733442,16.7600863 C12.5733442,16.8515625 12.6198694,16.936917 12.6970033,16.9862407 L13.9432136,17.7846898 C14.0679221,17.8602495 14.2300607,17.8226446 14.3087687,17.700035 C14.3873018,17.5772505 14.3537197,17.4142374 14.2330341,17.332556 L13.1106577,16.6133396 L13.1106577,14.2778102 Z" id="Path"></path>
            </g>
        </g>
    </g>
</svg>