<?xml version="1.0" encoding="utf-8"?>
<!-- Generator: Adobe Illustrator 16.0.0, SVG Export Plug-In . SVG Version: 6.00 Build 0)  -->
<!DOCTYPE svg PUBLIC "-//W3C//DTD SVG 1.1//EN" "http://www.w3.org/Graphics/SVG/1.1/DTD/svg11.dtd">
<svg version="1.1" id="Layer_1" xmlns="http://www.w3.org/2000/svg" xmlns:xlink="http://www.w3.org/1999/xlink" x="0px" y="0px"
	 width="19px" height="23px" viewBox="0 0 19 23" enable-background="new 0 0 19 23" xml:space="preserve">
<title>file</title>
<desc>Created with Sketch.</desc>
<g id="Page-1">
	<g id="_x32_-Main-Closed-menu" transform="translate(-896.000000, -109.000000)">
		<g id="file" transform="translate(896.500000, 110.000000)">
			<path id="Shape" fill="#0000FF" stroke="#FFFFFF" stroke-width="0.5" d="M0.696,17.036c0.391,0.39,0.92,0.606,1.471,0.604h0.01
				l6.481-0.035c0.633,2.34,2.927,3.828,5.322,3.449c2.395-0.377,4.12-2.5,4.001-4.921c-0.118-2.422-2.044-4.364-4.464-4.506
				L13.482,4.85c0-0.071-0.028-0.14-0.079-0.19L8.776,0.086C8.732,0.043,8.675,0.016,8.613,0.01L8.517,0.001C8.508,0,8.499,0,8.49,0
				L2.093,0.031C0.938,0.036,0.006,0.977,0.012,2.132l0.065,13.429C0.078,16.115,0.301,16.646,0.696,17.036z M17.45,16.366
				c-0.003,2.323-1.886,4.206-4.209,4.209c-2.325,0-4.209-1.885-4.209-4.209c0-2.325,1.884-4.209,4.209-4.209
				C15.564,12.16,17.447,14.043,17.45,16.366z M12.573,4.595l-2.151,0.01h-0.008c-0.855,0-1.55-0.691-1.554-1.546L8.85,0.915
				L12.573,4.595z M0.999,1.028c0.29-0.294,0.685-0.459,1.097-0.46l6.215-0.03l0.012,2.523c0.005,1.151,0.94,2.081,2.091,2.082h0.01
				l2.523-0.012l0.033,6.497c-2.516,0.139-4.486,2.219-4.485,4.739c0,0.235,0.017,0.47,0.052,0.702l-6.372,0.035H2.167
				c-0.855,0-1.549-0.691-1.554-1.546L0.549,2.129C0.546,1.717,0.708,1.32,0.999,1.028z"/>
			<path id="Path" fill="#0000FF" stroke="#FFFFFF" stroke-width="0.5" d="M7.414,9.919H6.503c-0.148,0-0.269,0.12-0.269,0.269
				s0.12,0.269,0.269,0.269h0.911c0.148,0,0.269-0.12,0.269-0.269S7.563,9.919,7.414,9.919z"/>
			<path id="Path_1_" fill="#0000FF" stroke="#FFFFFF" stroke-width="0.5" d="M2.991,8.178h7.564c0.148,0,0.27-0.12,0.27-0.269
				s-0.121-0.269-0.27-0.269H2.991c-0.148,0-0.269,0.121-0.269,0.269S2.842,8.178,2.991,8.178z"/>
			<path id="Path_2_" fill="#0000FF" stroke="#FFFFFF" stroke-width="0.5" d="M2.991,10.456h2.358c0.148,0,0.269-0.12,0.269-0.269
				s-0.12-0.269-0.269-0.269H2.991c-0.148,0-0.269,0.12-0.269,0.269S2.842,10.456,2.991,10.456z"/>
			<path id="Path_3_" fill="#0000FF" stroke="#FFFFFF" stroke-width="0.5" d="M13.111,14.277c0-0.148-0.121-0.268-0.27-0.268
				s-0.269,0.119-0.269,0.268v2.482c0,0.092,0.047,0.178,0.124,0.227l1.246,0.799c0.125,0.075,0.287,0.037,0.365-0.085
				c0.078-0.123,0.045-0.286-0.076-0.368l-1.121-0.719V14.277z"/>
		</g>
	</g>
</g>
</svg>
