<?xml version="1.0" encoding="UTF-8"?>
<svg width="18px" height="18px" viewBox="0 0 18 18" version="1.1" xmlns="http://www.w3.org/2000/svg" xmlns:xlink="http://www.w3.org/1999/xlink">
    <title>save</title>
    <g id="Page-1" stroke="none" stroke-width="1" fill="none" fill-rule="evenodd">
        <g id="06-Edit" transform="translate(-1083.000000, -574.000000)" fill="#3673FF" fill-rule="nonzero">
            <g id="save" transform="translate(1083.000000, 574.000000)">
                <path d="M17.880111,3.39256052 L14.6074011,0.119850682 C14.5306967,0.0431462455 14.4268389,0 14.3181487,0 L1.6363741,0 C0.734291571,0 0,0.733869696 0,1.6363741 L0,16.3636259 C0,17.266092 0.734291571,18 1.6363741,18 L16.3636259,18 C17.2657084,18 18,17.2661303 18,16.3636259 L18,3.68181295 C18,3.57316112 17.9568154,3.46926496 17.880111,3.39256052 Z M4.09091606,0.818167872 L13.0909161,0.818167872 L13.0909161,5.72725181 C13.0909161,6.17827389 12.7241538,6.54541968 12.2727482,6.54541968 L4.90908394,6.54541968 C4.45763997,6.54541968 4.09091606,6.17827389 4.09091606,5.72725181 L4.09091606,0.818167872 Z M14.7272518,17.1817938 L3.27270984,17.1817938 L3.27270984,9.81816787 L14.7272518,9.81816787 L14.7272518,17.1817938 Z M17.1817938,16.3636259 C17.1817938,16.814648 16.8150315,17.1817938 16.3636259,17.1817938 L15.545458,17.1817938 L15.545458,9.40906476 C15.545458,9.18294008 15.3624796,8.99996165 15.1363549,8.99996165 L2.86364508,8.99996165 C2.6375204,8.99996165 2.45454197,9.18294008 2.45454197,9.40906476 L2.45454197,17.1817938 L1.6363741,17.1817938 C1.18493014,17.1817938 0.818206224,16.814648 0.818206224,16.3636259 L0.818206224,1.6363741 C0.818206224,1.18535201 1.18496849,0.818167872 1.6363741,0.818167872 L3.27274819,0.818167872 L3.27274819,5.72729016 C3.27270984,6.62975621 4.00700141,7.3636259 4.90908394,7.3636259 L12.2727098,7.3636259 C13.1747924,7.3636259 13.9090839,6.62975621 13.9090839,5.72725181 L13.9090839,0.818167872 L14.1487853,0.818167872 L17.1817938,3.8512147 L17.1817938,16.3636259 Z" id="Shape"></path>
                <path d="M10.1250059,5.25 L11.6249941,5.25 C11.8322722,5.25 12,5.08227006 12,4.87498945 L12,1.87501055 C12,1.66772994 11.8322722,1.5 11.6249941,1.5 L10.1250059,1.5 C9.91772785,1.5 9.75,1.66772994 9.75,1.87501055 L9.75,4.87498945 C9.75,5.08227006 9.91772785,5.25 10.1250059,5.25 Z M10.4999766,2.25002109 L11.2499531,2.25002109 L11.2499531,4.50001406 L10.4999766,4.50001406 L10.4999766,2.25002109 L10.4999766,2.25002109 Z" id="Shape"></path>
            </g>
        </g>
    </g>
</svg>