<?xml version="1.0" encoding="utf-8"?>
<!-- Generator: Adobe Illustrator 16.0.0, SVG Export Plug-In . SVG Version: 6.00 Build 0)  -->
<!DOCTYPE svg PUBLIC "-//W3C//DTD SVG 1.1//EN" "http://www.w3.org/Graphics/SVG/1.1/DTD/svg11.dtd">
<svg version="1.1" id="Layer_1" xmlns="http://www.w3.org/2000/svg" xmlns:xlink="http://www.w3.org/1999/xlink" x="0px" y="0px"
	 width="18px" height="18px" viewBox="0 0 18 18" enable-background="new 0 0 18 18" xml:space="preserve">
<title>save</title>
<g id="Page-1">
	<g id="_x30_6-Edit" transform="translate(-1083.000000, -574.000000)">
		<g id="save" transform="translate(1083.000000, 574.000000)">
			<path id="Shape" fill="#555555" d="M17.88,3.393L14.607,0.12C14.531,0.043,14.427,0,14.318,0H1.636C0.734,0,0,0.734,0,1.636
				v14.727C0,17.266,0.734,18,1.636,18h14.727C17.266,18,18,17.266,18,16.363V3.682C18,3.573,17.957,3.469,17.88,3.393z
				 M4.091,0.818h9v4.909c0,0.451-0.366,0.818-0.817,0.818H4.909c-0.452,0-0.818-0.367-0.818-0.818V0.818z M14.727,17.182H3.272
				V9.818h11.454V17.182z M17.182,16.363c0,0.451-0.367,0.818-0.818,0.818h-0.818V9.409C15.545,9.183,15.362,9,15.137,9H2.864
				C2.638,9,2.455,9.183,2.455,9.409v7.772H1.636c-0.451,0-0.818-0.367-0.818-0.818V1.636c0-0.451,0.367-0.818,0.818-0.818h1.637
				v4.909c0,0.902,0.734,1.636,1.636,1.636h7.363c0.902,0,1.637-0.734,1.637-1.637V0.818h0.239l3.033,3.033V16.363z"/>
			<path id="Shape_1_" fill="#555555" d="M10.125,5.25h1.5C11.832,5.25,12,5.082,12,4.875v-3C12,1.668,11.832,1.5,11.625,1.5h-1.5
				C9.918,1.5,9.75,1.668,9.75,1.875v3C9.75,5.082,9.918,5.25,10.125,5.25z M10.5,2.25h0.75V4.5H10.5V2.25L10.5,2.25z"/>
		</g>
	</g>
</g>
</svg>
