<?xml version="1.0" encoding="utf-8"?>
<!-- Generator: Adobe Illustrator 16.0.0, SVG Export Plug-In . SVG Version: 6.00 Build 0)  -->
<!DOCTYPE svg PUBLIC "-//W3C//DTD SVG 1.1//EN" "http://www.w3.org/Graphics/SVG/1.1/DTD/svg11.dtd">
<svg version="1.1" id="Layer_1" xmlns="http://www.w3.org/2000/svg" xmlns:xlink="http://www.w3.org/1999/xlink" x="0px" y="0px"
	 width="18px" height="18px" viewBox="0 0 18 18" enable-background="new 0 0 18 18" xml:space="preserve">
<title>Search-icon</title>
<desc>Created with Sketch.</desc>
<g id="Page-1">
	<g id="_x31_-Main-Open-menu" transform="translate(-371.000000, -232.000000)">
		<g id="Search-icon" transform="translate(371.000000, 232.000000)">
			<path id="Fill-5" fill="#3673FF" d="M11.617,12.262c-1.938,1.692-4.834,2.226-7.271,1.229C1.409,12.289-0.462,8.91,0.1,5.766
				c0.563-3.146,3.487-5.692,6.758-5.765C6.918,0,6.978,0,7.038,0c3.215,0.031,6.245,2.512,6.841,5.722
				c0.398,2.152-0.289,4.477-1.783,6.077l5.801,5.641c0.125,0.131,0.104,0.174,0.102,0.248c-0.008,0.254-0.353,0.421-0.566,0.229
				L11.617,12.262z M6.952,0.667C4.083,0.694,1.391,2.864,0.794,5.689c-0.439,2.08,0.252,4.364,1.774,5.849
				c1.747,1.706,4.512,2.278,6.819,1.335c2.668-1.091,4.365-4.175,3.836-7.029c-0.524-2.83-3.145-5.11-6.107-5.176
				C7.061,0.667,7.007,0.667,6.952,0.667z"/>
		</g>
	</g>
	<g id="Page">
	</g>
</g>
</svg>
