<?xml version="1.0" encoding="UTF-8"?>
<svg width="18px" height="18px" viewBox="0 0 18 18" version="1.1" xmlns="http://www.w3.org/2000/svg" xmlns:xlink="http://www.w3.org/1999/xlink">
    <!-- Generator: Sketch 52.1 (67048) - http://www.bohemiancoding.com/sketch -->
    <title>Search-icon</title>
    <desc>Created with Sketch.</desc>
    <g id="Page-1" stroke="none" stroke-width="1" fill="none" fill-rule="evenodd">
        <g id="1-Main-Open-menu" transform="translate(-371.000000, -232.000000)" fill="#4A4A4A" fill-rule="nonzero">
            <g id="Search-icon" transform="translate(371.000000, 232.000000)">
                <path d="M11.616729,12.2623587 C9.679605,13.9541181 6.783422,14.4871291 4.346927,13.4908189 C1.409061,12.2893761 -0.462369,8.9098598 0.099527,5.7654953 C0.661923,2.6189628 3.586951,0.0738188 6.857619,0.0011051 C6.91781,0.0002713 6.978002,-0.0002291 7.038193,0.0001045 C10.252672,0.0306242 13.283076,2.5115601 13.878652,5.7223008 C14.277648,7.8745243 13.589367,10.1993594 12.096258,11.7983923 L17.896459,17.4388691 C18.02101,17.5702873 17.999334,17.6139822 17.997334,17.6870294 C17.990498,17.9415271 17.645523,18.1086351 17.431603,17.9171781 L11.616729,12.2623587 Z M6.951991,0.6672021 C4.082986,0.6943863 1.390554,2.8641212 0.793977,5.6889459 C0.354798,7.7684558 1.046413,10.0525979 2.567868,11.5382242 C4.314748,13.2439928 7.080043,13.8165293 9.386818,12.8732533 C12.054908,11.7822152 13.752101,8.6982231 13.222884,5.8440461 C12.698004,3.0143849 10.078267,0.7339118 7.115725,0.6682027 C7.061202,0.6673688 7.00668,0.6670353 6.951991,0.6672021 Z" id="Fill-5"></path>
            </g>
        </g>
        <g id="Page"></g>
    </g>
</svg>