<?xml version="1.0" encoding="UTF-8"?>
<svg width="34px" height="24px" viewBox="0 0 34 24" version="1.1" xmlns="http://www.w3.org/2000/svg" xmlns:xlink="http://www.w3.org/1999/xlink">
    <!-- Generator: Sketch 52.1 (67048) - http://www.bohemiancoding.com/sketch -->
    <title>Group 9</title>
    <desc>Created with Sketch.</desc>
    <defs>
        <polygon id="path-1" points="1.35489519e-06 0.0200836573 33.978317 0.0200836573 33.978317 20.3663849 1.35489519e-06 20.3663849"></polygon>
        <polygon id="path-3" points="0.125907873 0.057554932 6.86815438 0.057554932 6.86815438 6.8 0.125907873 6.8"></polygon>
    </defs>
    <g id="Page-1" stroke="none" stroke-width="1" fill="none" fill-rule="evenodd">
        <g id="001-Carrier-Events" transform="translate(-1397.000000, -393.000000)">
            <g id="Group" transform="translate(1385.000000, 379.000000)">
                <g id="Group-9" transform="translate(12.000000, 14.000000)">
                    <g id="Group-3" transform="translate(0.000000, 0.108287)">
                        <mask id="mask-2" fill="white">
                            <use xlink:href="#path-1"></use>
                        </mask>
                        <g id="Clip-2"></g>
                        <path d="M32.0725721,12.2655321 C32.0072664,12.1372302 31.9809645,12.0692302 31.9414475,12.010083 C30.6171155,10.0298717 29.288806,8.05235472 27.968323,6.06957736 C27.6460287,5.58575094 27.1840136,5.39304151 26.6327004,5.38932075 C25.3609721,5.38046792 24.0891155,5.38495849 22.8175155,5.38675472 C22.3992513,5.38739623 22.392323,5.39111698 22.3920664,5.81220377 C22.3905268,7.84270943 22.399123,9.87321509 22.3879608,11.9037208 C22.3862928,12.2126717 22.5004815,12.2713057 22.7800513,12.2706642 C25.7403608,12.2621962 28.7009268,12.2655321 31.6613645,12.2655321 L32.0725721,12.2655321 Z M11.5455532,20.3663849 C11.6981042,18.6162189 11.1618023,17.1479321 9.81283623,16.0213132 C8.91754566,15.2735698 7.87201358,14.9163774 6.70703245,14.9365208 C5.28147019,14.961283 4.09352302,15.5341509 3.15756075,16.5930264 C2.2155683,17.6585736 1.90020226,18.9396679 2.02170415,20.3373887 C0.963213585,20.3470113 0.0794701887,19.6159472 0.0350777358,18.5429585 C-0.0318958491,16.9222491 0.0176286792,15.2967925 0.0176286792,13.6377208 L21.107123,13.6377208 C21.107123,13.1822491 21.1128966,12.7598792 21.0996815,12.3381509 C21.0980136,12.2876 20.999606,12.2160075 20.9340438,12.1976604 C20.8444891,12.1726415 20.7432589,12.1882943 20.6470325,12.1882943 C13.922474,12.1880377 7.19804377,12.1877811 0.473485283,12.1875245 L0.0244286792,12.1875245 C0.0175003774,12.0499849 0.00710792453,11.9372075 0.00710792453,11.8243019 C0.00633811321,8.77751698 0.00402867925,5.73073208 0.00800603774,2.68394717 C0.00993056604,1.24298868 1.19325887,0.0278415094 2.62882868,0.0257886792 C8.34839849,0.0177056604 14.0679683,0.0184754717 19.7875381,0.0264301887 C21.188723,0.028354717 22.3286853,1.15369057 22.3880891,2.55872453 C22.4029721,2.91078491 22.388474,3.2641283 22.3892438,3.61683019 C22.3905268,4.09796226 22.3911683,4.1001434 22.8860287,4.1005283 C24.1154174,4.10142642 25.344806,4.09141887 26.5741947,4.10527547 C26.9122702,4.10899623 27.2599683,4.14312453 27.5852136,4.23062642 C28.2188966,4.40088302 28.6969494,4.80490566 29.0590174,5.34852075 C30.6166023,7.68695094 32.1802174,10.0215321 33.7235608,12.3693283 C33.8714928,12.5944981 33.962074,12.9007547 33.9654098,13.1708302 C33.9869645,14.8596679 33.9745192,16.5488906 33.9770853,18.2379849 C33.9779834,18.8324075 33.7938702,19.3562642 33.3672664,19.7713208 C33.1837947,19.949917 32.9505419,20.0774491 32.660323,20.2850415 C32.7353796,18.3830943 32.1258174,16.8864528 30.6503457,15.8201358 C29.7097645,15.1402642 28.6358777,14.8636453 27.4735909,14.9417811 C25.2981042,15.087917 22.7141042,17.1720528 23.1069645,20.3663849 L11.5455532,20.3663849 Z" id="Fill-1" fill="#FFFFFF" mask="url(#mask-2)"></path>
                    </g>
                    <g id="Group-6" transform="translate(24.377358, 16.402626)">
                        <mask id="mask-4" fill="white">
                            <use xlink:href="#path-3"></use>
                        </mask>
                        <g id="Clip-5"></g>
                        <path d="M3.46438189,0.0591215094 C5.28011019,0.00266867925 6.8106234,1.47903849 6.86669132,3.34121208 C6.92070642,5.14167245 5.47179321,6.71247245 3.72842717,6.79574038 C1.7315366,6.89119698 0.248366792,5.37030642 0.133921509,3.66851019 C-0.00207849057,1.64608755 1.61285736,0.0501403774 3.46438189,0.0591215094" id="Fill-4" fill="#FFFFFF" mask="url(#mask-4)"></path>
                    </g>
                    <path d="M6.76252302,23.1940943 C4.91613057,23.1970453 3.40742868,21.6819283 3.40601736,19.8236038 C3.40460604,17.9818302 4.90176075,16.4719736 6.73763245,16.4638906 C8.64060604,16.4554226 10.1598287,17.9483434 10.1639343,19.8310453 C10.16804,21.686034 8.64586642,23.1910151 6.76252302,23.1940943" id="Fill-7" fill="#FFFFFF"></path>
                </g>
            </g>
        </g>
    </g>
</svg>