<?xml version="1.0" encoding="utf-8"?>
<!-- Generator: Adobe Illustrator 16.0.0, SVG Export Plug-In . SVG Version: 6.00 Build 0)  -->
<!DOCTYPE svg PUBLIC "-//W3C//DTD SVG 1.1//EN" "http://www.w3.org/Graphics/SVG/1.1/DTD/svg11.dtd">
<svg version="1.1" id="Layer_1" xmlns="http://www.w3.org/2000/svg" xmlns:xlink="http://www.w3.org/1999/xlink" x="0px" y="0px"
	 width="4px" height="2.578px" viewBox="0 0 4 2.578" enable-background="new 0 0 4 2.578" xml:space="preserve">
<title>eye-other</title>
<path fill="#3673FF" d="M2,2.578c-0.846,0-1.61-0.486-1.996-1.27c-0.006-0.014-0.006-0.027,0-0.039C0.39,0.486,1.154,0,2,0
	c0.846,0,1.609,0.486,1.996,1.27c0.006,0.014,0.006,0.026,0,0.039C3.609,2.092,2.846,2.578,2,2.578z M0.094,1.289
	c0.373,0.74,1.101,1.2,1.906,1.2c0.805,0,1.533-0.46,1.906-1.2C3.533,0.548,2.805,0.089,2,0.089
	C1.195,0.089,0.467,0.548,0.094,1.289z"/>
<path fill="#3673FF" d="M2,2.045c-0.417,0-0.755-0.339-0.755-0.756S1.583,0.534,2,0.534s0.756,0.338,0.756,0.755l0,0
	C2.755,1.706,2.417,2.044,2,2.045z M2,0.622c-0.368,0-0.667,0.299-0.667,0.667S1.632,1.956,2,1.956s0.666-0.298,0.666-0.667l0,0
	C2.666,0.921,2.368,0.623,2,0.622L2,0.622z"/>
</svg>
