<?xml version="1.0" encoding="utf-8"?>
<!-- Generator: Adobe Illustrator 16.0.0, SVG Export Plug-In . SVG Version: 6.00 Build 0)  -->
<!DOCTYPE svg PUBLIC "-//W3C//DTD SVG 1.1//EN" "http://www.w3.org/Graphics/SVG/1.1/DTD/svg11.dtd">
<svg version="1.1" id="Layer_1" xmlns="http://www.w3.org/2000/svg" xmlns:xlink="http://www.w3.org/1999/xlink" x="0px" y="0px"
	 width="4px" height="2.578px" viewBox="0 2.711 4 2.578" enable-background="new 0 2.711 4 2.578" xml:space="preserve">
<title>eye-other</title>
<path fill="#9B9B9B" d="M2,5.289c-0.846,0-1.61-0.486-1.996-1.27c-0.006-0.012-0.006-0.027,0-0.039C0.39,3.197,1.154,2.711,2,2.711
	s1.609,0.486,1.996,1.27c0.006,0.012,0.006,0.026,0,0.039C3.609,4.803,2.846,5.289,2,5.289z M0.094,4C0.467,4.74,1.195,5.2,2,5.2
	S3.533,4.74,3.906,4C3.533,3.259,2.805,2.8,2,2.8S0.467,3.259,0.094,4z"/>
<path fill="#9B9B9B" d="M2,4.756C1.583,4.756,1.245,4.417,1.245,4S1.583,3.245,2,3.245S2.756,3.583,2.756,4l0,0
	C2.755,4.417,2.417,4.755,2,4.756z M2,3.333C1.632,3.333,1.333,3.632,1.333,4S1.632,4.667,2,4.667S2.666,4.369,2.666,4c0,0,0,0,0,0
	C2.666,3.632,2.368,3.334,2,3.333L2,3.333z"/>
</svg>
